<svg xmlns="http://www.w3.org/2000/svg" xmlns:xlink="http://www.w3.org/1999/xlink" width="244" height="247" viewBox="0 0 244 247">
    <defs>
        <path id="a" d="M31.493 195.09l4.673 32.676c.734 5.17 4.933 9.17 10.162 9.682l9.583.947a29.05 29.05 0 0 0 6.389-.068l9.148-1.099c5.285-.644 9.422-4.829 9.979-10.091l3.537-34.425-53.471 2.378z"/>
        <filter id="b" width="107.5%" height="108.7%" x="-3.7%" y="-4.4%" filterUnits="objectBoundingBox">
            <feGaussianBlur in="SourceAlpha" result="shadowBlurInner1" stdDeviation="1.5"/>
            <feOffset dy="1" in="shadowBlurInner1" result="shadowOffsetInner1"/>
            <feComposite in="shadowOffsetInner1" in2="SourceAlpha" k2="-1" k3="1" operator="arithmetic" result="shadowInnerInner1"/>
            <feColorMatrix in="shadowInnerInner1" values="0 0 0 0 0 0 0 0 0 0 0 0 0 0 0 0 0 0 0.5 0"/>
        </filter>
    </defs>
    <g fill="none" fill-rule="evenodd">
        <path fill="#D8D8D8" fill-opacity="0" d="M-3-3h250v250H-3z"/>
        <g transform="translate(0 -3)">
            <path fill="#39B5A9" fill-rule="nonzero" d="M72.584 198.348s5.275-3.902 20.537-13.637c33.079-21.137 45.147-58.782 21.278-63.161-23.534-4.349-30.845 27.698-41.503 53.184-4.696 11.25-9.72 16.114-9.72 16.114l9.408 7.5z"/>
            <path fill="#39B5A9" fill-rule="nonzero" d="M117.738 122.436c-5.337 12.546-13.913 31.062-22.162 41.35-7.692 9.6-19.966 21.509-28.931 29.827l5.939 4.735s5.275-3.902 20.537-13.637c31.41-20.091 43.866-55.04 24.617-62.275z" opacity=".54" style="mix-blend-mode:multiply"/>
            <path fill="#10665A" fill-rule="nonzero" d="M117.738 122.436c-1.311 3.455-2.745 6.819-4.193 10.25-1.449 3.433-3.05 6.736-4.65 10.054a132.657 132.657 0 0 1-11.154 19.213 159.063 159.063 0 0 1-14.835 16.553 394.738 394.738 0 0 1-7.997 7.698c-2.73 2.5-5.459 4.992-8.264 7.41 2.615-2.615 5.26-5.198 7.845-7.842 2.584-2.644 5.199-5.243 7.745-7.917 2.546-2.674 5.062-5.364 7.502-8.13 2.44-2.764 4.871-5.537 7.013-8.492 4.315-5.932 7.868-12.402 11.306-18.94a323.478 323.478 0 0 0 4.948-9.887c1.6-3.326 3.163-6.644 4.734-9.97z"/>
            <path fill="#10665A" fill-rule="nonzero" d="M122.907 140.914a34.315 34.315 0 0 1-1.655 2.22c-.571.705-1.242 1.371-1.89 2.038a24.849 24.849 0 0 1-4.422 3.41 17.8 17.8 0 0 1-5.2 2.158c-.464.084-.922.19-1.394.243a11.02 11.02 0 0 1-1.41.09 7.943 7.943 0 0 1-2.768-.416c.909.05 1.82-.01 2.714-.182a18.981 18.981 0 0 0 2.607-.644 24.227 24.227 0 0 0 4.826-2.273 43.55 43.55 0 0 0 4.422-3.083l2.088-1.743a27.435 27.435 0 0 1 2.082-1.818zM122.03 133.293c-.358.522-.762 1.007-1.136 1.515-.374.508-.846.94-1.288 1.394a17.148 17.148 0 0 1-3.05 2.333 11.97 11.97 0 0 1-3.56 1.516 7.31 7.31 0 0 1-3.812-.061 7.256 7.256 0 0 0 1.86-.121c.605-.118 1.2-.275 1.784-.47a16.306 16.306 0 0 0 3.309-1.568 29.18 29.18 0 0 0 3.05-2.106l1.433-1.197c.457-.432.914-.834 1.41-1.235zM95.492 176.741c-.503.394-1.029.758-1.524 1.114-.496.356-1.098.644-1.662.94a16.991 16.991 0 0 1-3.591 1.325c-1.244.317-2.53.435-3.812.349a7.204 7.204 0 0 1-3.629-1.197 6.973 6.973 0 0 0 1.815.44 13.47 13.47 0 0 0 1.83.105 16.748 16.748 0 0 0 3.628-.5c1.2-.294 2.38-.666 3.53-1.114l1.723-.704c.534-.22 1.098-.523 1.692-.758zM116.975 153.422a46.034 46.034 0 0 1-1.844 2.372c-.64.772-1.38 1.47-2.158 2.113a22.547 22.547 0 0 1-5.077 3.349 19.15 19.15 0 0 1-5.886 1.644 13.105 13.105 0 0 1-6.007-.644c1.96.2 3.94.1 5.87-.296a24.775 24.775 0 0 0 8.066-3.19c.861-.454 1.624-1.06 2.44-1.598.419-.257.762-.598 1.166-.894l1.166-.909c.747-.644 1.472-1.318 2.264-1.947zM109.779 166.051a23.722 23.722 0 0 1-1.853 2.16 17.04 17.04 0 0 1-2.226 1.81 15.79 15.79 0 0 1-5.275 2.372c-.945.222-1.906.374-2.874.454h-1.456c-.48 0-.96-.06-1.441-.098a14.866 14.866 0 0 1-5.474-1.622c1.815.422 3.67.648 5.535.675a20.707 20.707 0 0 0 5.42-.614 19.611 19.611 0 0 0 5.062-1.992 23.58 23.58 0 0 0 2.34-1.463c.786-.5 1.48-1.136 2.242-1.682zM85.384 174.696a15.996 15.996 0 0 1-1.525-4.273 25.703 25.703 0 0 1-.526-4.546c-.033-1.52.054-3.04.259-4.545.189-1.502.536-2.98 1.037-4.41-.046 3.03-.145 5.963-.069 8.91 0 1.47.122 2.932.237 4.401.114 1.47.327 2.963.587 4.463zM94.334 165.294a20.398 20.398 0 0 1-2.79-5.94 31.005 31.005 0 0 1-1.068-6.515c-.1-2.193-.008-4.391.275-6.569.26-2.171.75-4.31 1.463-6.379a83.1 83.1 0 0 0-.518 12.88c.109 2.13.363 4.252.762 6.348a37.704 37.704 0 0 0 1.876 6.175zM102.918 153.468a11.839 11.839 0 0 1-2.768-5.304 23.444 23.444 0 0 1-.678-5.992c.02-2.003.214-4 .58-5.97a30.69 30.69 0 0 1 1.585-5.758 231.009 231.009 0 0 0-.64 5.887 65.475 65.475 0 0 0-.305 5.848 34.952 34.952 0 0 0 .388 5.789 16.475 16.475 0 0 0 1.838 5.5zM108.2 142.96a14 14 0 0 1-1.044-3.788 15.811 15.811 0 0 1-.045-3.978c.148-1.326.468-2.627.953-3.871a11.415 11.415 0 0 1 1.982-3.424c-.476 1.2-.87 2.43-1.182 3.682a28.475 28.475 0 0 0-.87 7.53c-.007 1.258.123 2.56.207 3.849zM76.914 184.143a13.24 13.24 0 0 1-.763-3.53 16.918 16.918 0 0 1 .077-3.622 18.104 18.104 0 0 1 2.241-6.818 52.13 52.13 0 0 0-.846 3.462 41.39 41.39 0 0 0-.587 3.478 31.624 31.624 0 0 0-.252 3.5 34.875 34.875 0 0 0 .13 3.53z"/>
            <path fill="#39B5A9" fill-rule="nonzero" d="M68.97 200.22s3.141-9.85 13.425-36.123c22.284-56.972 7.776-119.558-23.145-105.86-30.494 13.508-14.729 64.313-7.776 108.754 3.05 19.607.938 30.562.938 30.562l16.558 2.666z"/>
            <path fill="#39B5A9" fill-rule="nonzero" d="M63.809 56.744c3.324 21.971 7.38 54.912 5.626 76.124-1.639 19.79-6.861 46.616-10.924 65.67l10.46 1.681s3.14-9.848 13.424-36.122c21.155-54.1 9.148-113.24-18.586-107.353z" opacity=".54" style="mix-blend-mode:multiply"/>
            <path fill="#10665A" fill-rule="nonzero" d="M63.809 56.744c1.09 5.864 2.013 11.758 2.912 17.66.9 5.902 1.586 11.826 2.234 17.766a252.795 252.795 0 0 1 1.685 35.812c-.26 6.008-.969 11.947-1.761 17.872a336.128 336.128 0 0 1-2.86 17.682c-1.105 5.864-2.24 11.728-3.506 17.531-1.266 5.803-2.577 11.652-4.033 17.425 1.045-5.871 2.158-11.728 3.149-17.607.99-5.879 2.058-11.742 2.973-17.63.915-5.886 1.837-11.734 2.561-17.628.725-5.895 1.418-11.82 1.647-17.72.229-5.903.137-11.865-.107-17.797S68.017 98.23 67.56 92.3c-.458-5.932-1.068-11.864-1.723-17.781a3623.406 3623.406 0 0 0-2.028-17.774z"/>
            <path fill="#10665A" fill-rule="nonzero" d="M83.737 78.215c0 1.417-.092 2.826-.168 4.243-.076 1.416-.358 2.81-.572 4.212-.213 1.401-.617 2.78-.96 4.16-.206.68-.442 1.355-.663 2.037l-.336 1.015-.404 1a28.215 28.215 0 0 1-4.315 7.455c-.217.29-.45.565-.701.826l-.763.757c-.526.5-1.067.985-1.631 1.432a10.604 10.604 0 0 1-3.812 1.985 13.513 13.513 0 0 0 3.202-2.651 24.741 24.741 0 0 0 2.562-3.167 37.301 37.301 0 0 0 2.066-3.538l.907-1.849c.29-.621.518-1.272.762-1.901l.412-.947.343-.978c.236-.651.45-1.303.694-1.947.427-1.318.808-2.651 1.227-3.977.42-1.326.762-2.69 1.075-4.046.313-1.356.67-2.788 1.075-4.121zM76.998 68.336c0 .97-.061 1.932-.115 2.901-.053.97-.244 1.925-.388 2.887-.145.962-.427 1.901-.656 2.848l-.458 1.402c-.14.47-.31.93-.51 1.379a19.358 19.358 0 0 1-2.973 5.099 13.042 13.042 0 0 1-2.112 2.083 7.41 7.41 0 0 1-2.607 1.364 9.592 9.592 0 0 0 2.195-1.819 17.38 17.38 0 0 0 1.738-2.212 26.251 26.251 0 0 0 2.577-4.992c.404-.849.648-1.773.991-2.652l.839-2.72.762-2.773c.198-.924.42-1.856.717-2.795zM79.125 151.036c-.244.894-.55 1.773-.847 2.659-.297.886-.762 1.712-1.12 2.56-.359.85-.892 1.645-1.365 2.455l-.762 1.167-.404.576-.45.553a16.918 16.918 0 0 1-4.2 3.788c-.405.254-.822.487-1.25.697-.436.199-.882.376-1.335.53a6.702 6.702 0 0 1-2.805.356 8.895 8.895 0 0 0 2.5-.894 14.306 14.306 0 0 0 2.287-1.454 22.2 22.2 0 0 0 3.812-3.788c.617-.66 1.082-1.447 1.639-2.152l1.525-2.273 1.418-2.356c.404-.833.853-1.636 1.357-2.424zM86.344 100.64c0 1.515-.137 3.03-.251 4.546-.23 1.515-.45 3.03-.763 4.5a37.508 37.508 0 0 1-3.125 8.644c-.183.341-.344.69-.542 1.03l-.61.985a18.93 18.93 0 0 1-1.28 1.94c-.488.606-.923 1.242-1.449 1.818-.526.576-1.037 1.152-1.608 1.674a21.665 21.665 0 0 1-3.683 2.826 14.067 14.067 0 0 1-4.246 1.773 19.57 19.57 0 0 0 3.72-2.5 28.347 28.347 0 0 0 3.18-3.084 35.75 35.75 0 0 0 4.886-7.295c.328-.66.679-1.303.991-1.97.313-.667.557-1.364.854-2.046.145-.34.305-.674.435-1.015l.358-1.053c.236-.704.488-1.401.762-2.098l1.273-4.296c.32-1.455.671-2.917 1.098-4.379zM87.587 124.247c-.076 1.386-.183 2.795-.381 4.197l-.465 2.068-.244 1.038c-.092.341-.23.675-.343 1.008a33.83 33.83 0 0 1-.763 2.007c-.282.667-.625 1.288-.938 1.932l-.503.955c-.167.318-.388.598-.587.902-.404.59-.762 1.204-1.22 1.78a23.352 23.352 0 0 1-6.48 5.667 18.642 18.642 0 0 1-8.042 2.69 28.77 28.77 0 0 0 7.28-3.85c.541-.416 1.106-.795 1.601-1.25a17.125 17.125 0 0 0 1.525-1.356c.457-.492.976-.924 1.41-1.439l1.296-1.515c.42-.53.763-1.099 1.174-1.644.19-.28.404-.538.572-.834l.496-.878c.335-.591.716-1.152 1.006-1.766.29-.613.564-1.234.861-1.848.138-.31.305-.614.427-.932l.35-.962.763-1.932c.389-1.371.732-2.712 1.205-4.038zM65.86 156.589a27.015 27.015 0 0 1-5.2-4.917 43.859 43.859 0 0 1-4.032-5.917 52.52 52.52 0 0 1-3.05-6.454 37.188 37.188 0 0 1-1.997-6.819 455.343 455.343 0 0 1 3.3 6.25 190.42 190.42 0 0 0 3.34 6.144 163.412 163.412 0 0 0 3.59 5.978c1.236 1.97 2.623 3.818 4.049 5.735zM69.138 136.013a32.598 32.598 0 0 1-8.096-6.364 53.577 53.577 0 0 1-6.1-8.334 65.87 65.87 0 0 1-4.528-9.19 53.922 53.922 0 0 1-2.935-9.849 226.33 226.33 0 0 0 4.247 9.228c.358.758.762 1.515 1.128 2.273.366.757.762 1.515 1.174 2.235.412.72.762 1.515 1.197 2.22l1.265 2.174c.877 1.424 1.723 2.879 2.7 4.235.975 1.356 1.958 2.712 2.942 4.076a56.025 56.025 0 0 0 7.006 7.296zM70.136 112.375c-3.049-1.007-5.542-3.19-7.623-5.553a37.142 37.142 0 0 1-2.859-3.788c-.869-1.318-1.647-2.69-2.401-4.068a63.35 63.35 0 0 1-3.698-8.637c-1.04-2.959-1.822-6-2.34-9.091 1.22 2.871 2.424 5.72 3.674 8.538.648 1.402 1.25 2.81 1.937 4.19.686 1.378 1.326 2.772 2.05 4.113a63.773 63.773 0 0 0 4.75 7.826 25.08 25.08 0 0 0 6.51 6.47zM68.284 93.314a24.061 24.061 0 0 1-4.246-4.674 27.398 27.398 0 0 1-1.685-2.69c-.275-.454-.473-.947-.717-1.417a14.46 14.46 0 0 1-.648-1.447 28.395 28.395 0 0 1-1.753-6.06 20.714 20.714 0 0 1-.206-6.289c.379 2.028.86 4.036 1.44 6.016a52.545 52.545 0 0 0 2.013 5.758 51.124 51.124 0 0 0 2.623 5.5c.945 1.795 2.081 3.5 3.179 5.303zM63.23 176.794a22.555 22.555 0 0 1-3.69-4.447 31.042 31.042 0 0 1-2.646-5.152 36.893 36.893 0 0 1-1.723-5.507 28.25 28.25 0 0 1-.762-5.705 109.457 109.457 0 0 0 3.598 10.765c.671 1.758 1.525 3.448 2.333 5.13.808 1.681 1.876 3.28 2.89 4.916z"/>
            <path fill="#39B5A9" fill-rule="nonzero" d="M55.232 199.62s-.678-7.992-1.181-30.106c-1.09-47.911-29.732-85.223-47.495-63.639-17.534 21.266 8.57 50.002 26.56 77.79 7.937 12.274 9.667 20.645 9.667 20.645l12.45-4.69z"/>
            <path fill="#39B5A9" fill-rule="nonzero" d="M9.324 103.034c8.805 13.773 21.384 34.85 26.392 50.108 4.689 14.288 8.92 34.744 11.657 49.426l7.86-2.947s-.679-7.993-1.182-30.107c-1.03-45.494-26.919-81.42-44.727-66.48z" opacity=".54" style="mix-blend-mode:multiply"/>
            <path fill="#10665A" fill-rule="nonzero" d="M9.324 103.034c2.553 3.697 4.978 7.47 7.394 11.258 2.417 3.788 4.681 7.682 6.915 11.569a170.7 170.7 0 0 1 11.778 24.243 218.618 218.618 0 0 1 7.06 26.008 499.976 499.976 0 0 1 2.66 13.183c.763 4.409 1.578 8.818 2.242 13.25-.984-4.371-1.906-8.75-2.92-13.114-1.014-4.364-1.975-8.735-3.05-13.076-1.075-4.341-2.15-8.69-3.362-12.993-1.212-4.303-2.431-8.606-3.964-12.773-1.532-4.167-3.362-8.258-5.29-12.28-1.93-4.024-4.003-7.994-6.1-11.948-2.096-3.955-4.307-7.857-6.556-11.736-2.249-3.879-4.528-7.72-6.807-11.591z"/>
            <path fill="#10665A" fill-rule="nonzero" d="M29.732 109.966c.427 1.03.762 2.084 1.166 3.144.404 1.06.587 2.16.854 3.25.267 1.091.404 2.205.526 3.326.12 1.12.184 2.245.19 3.372a31.548 31.548 0 0 1-.198 3.394l-.29 1.674c-.106.56-.266 1.106-.411 1.651-.145.546-.366 1.084-.556 1.614a6.733 6.733 0 0 1-.763 1.515 9.468 9.468 0 0 1-2.043 2.705 12.888 12.888 0 0 0 1.403-2.97c.206-.507.328-1.045.488-1.515.16-.47.259-1.053.358-1.583.41-2.13.598-4.295.564-6.463a60.612 60.612 0 0 0-.389-6.523c-.167-1.083-.29-2.182-.442-3.273-.152-1.09-.373-2.204-.457-3.318zM22.017 105.83c.297.704.549 1.431.8 2.151.252.72.404 1.515.587 2.228.183.712.275 1.515.359 2.272.085.768.128 1.54.13 2.311 0 .775-.046 1.549-.138 2.318l-.198 1.152c-.069.386-.183.757-.282 1.136-.1.38-.244.758-.382 1.099-.137.34-.304.72-.495 1.06a6.64 6.64 0 0 1-1.403 1.841c.407-.635.73-1.32.96-2.038.25-.698.444-1.415.58-2.144.282-1.457.412-2.94.389-4.424a41.969 41.969 0 0 0-.267-4.47l-.305-2.273a42.841 42.841 0 0 1-.335-2.22zM47.899 161.824c.091.758.137 1.515.183 2.273.045.757 0 1.515 0 2.273 0 .757-.145 1.515-.26 2.272a15.238 15.238 0 0 1-.495 2.228 19.616 19.616 0 0 1-.762 2.159 15.246 15.246 0 0 1-1.106 1.977c-.198.326-.442.63-.663.94-.221.31-.496.59-.762.856a5.961 5.961 0 0 1-1.868 1.318 8.043 8.043 0 0 0 1.524-1.629c.43-.59.813-1.213 1.144-1.863a20.096 20.096 0 0 0 1.525-4.076c.384-1.414.687-2.848.907-4.296l.312-2.205c.115-.742.199-1.477.32-2.227zM38.118 124.353a67.152 67.152 0 0 1 1.197 3.417c.373 1.144.602 2.348.762 3.545.409 2.42.519 4.88.328 7.326a24.436 24.436 0 0 1-1.746 7.122 15.84 15.84 0 0 1-4.14 5.962 23.5 23.5 0 0 0 3.103-6.349 32.519 32.519 0 0 0 1.372-6.863l.13-1.75v-1.758c.061-1.174-.092-2.349-.122-3.53 0-.591-.13-1.175-.175-1.766l-.183-1.773c-.168-1.204-.374-2.378-.526-3.583zM45.962 140.08c.39 1.063.72 2.146.991 3.243.244 1.113.397 2.243.458 3.38a20.454 20.454 0 0 1-.671 6.818 20.2 20.2 0 0 1-2.89 6.242 16.932 16.932 0 0 1-4.818 4.796 28.3 28.3 0 0 0 3.88-5.379c.527-.953 1-1.935 1.419-2.94l.587-1.515.457-1.56c.155-.52.28-1.05.374-1.584a12.64 12.64 0 0 0 .282-1.606l.206-1.614.076-1.644v-.818-.826l-.053-1.651c-.046-1.106-.237-2.205-.298-3.341zM40.191 170.855a18.135 18.135 0 0 1-5.054-1.341 29.903 29.903 0 0 1-4.574-2.5 34.186 34.186 0 0 1-4.071-3.243 24.291 24.291 0 0 1-3.469-3.917c2.806 2.038 5.504 4.076 8.317 5.963 1.395.947 2.836 1.818 4.292 2.682 1.456.863 2.981 1.613 4.56 2.356zM36.433 155.422a21.936 21.936 0 0 1-7.464-1.174 35.237 35.237 0 0 1-6.8-3.31 43.42 43.42 0 0 1-5.954-4.607 35.477 35.477 0 0 1-5-5.568 134.955 134.955 0 0 0 5.717 4.735c1.951 1.515 3.934 2.94 6 4.25a53.22 53.22 0 0 0 6.441 3.477 38.338 38.338 0 0 0 7.06 2.197zM30.159 138.793a12.444 12.444 0 0 1-6.861-.803 23.95 23.95 0 0 1-3.157-1.515c-1.006-.569-1.974-1.213-2.92-1.872a42.075 42.075 0 0 1-5.206-4.5 36.753 36.753 0 0 1-4.353-5.303c1.707 1.515 3.4 3.03 5.115 4.485 1.715 1.455 3.461 2.864 5.276 4.167a39.037 39.037 0 0 0 5.68 3.485 16.79 16.79 0 0 0 6.426 1.856zM23.252 126.414a15.83 15.83 0 0 1-4.353-1.561 17.886 17.886 0 0 1-3.812-2.66 18.306 18.306 0 0 1-3.05-3.507 14.007 14.007 0 0 1-1.974-4.16 42 42 0 0 0 2.752 3.577 33.081 33.081 0 0 0 3.103 3.174 30.64 30.64 0 0 0 3.484 2.75c1.22.871 2.53 1.584 3.85 2.387zM44.285 185.772a14.97 14.97 0 0 1-3.88-1.621 20.482 20.482 0 0 1-3.4-2.53 25.057 25.057 0 0 1-2.844-3.115 18.736 18.736 0 0 1-2.188-3.583 65.595 65.595 0 0 0 5.68 6.008 37.075 37.075 0 0 0 3.156 2.606 39.03 39.03 0 0 0 3.476 2.235z"/>
            <g fill-rule="nonzero">
                <use fill="#AA1336" xlink:href="#a"/>
                <use fill="#000" filter="url(#b)" xlink:href="#a"/>
            </g>
            <path fill="#FF6000" fill-rule="nonzero" d="M80.154 192.924l-11.618 31.25c-1.972 5.332-7.403 8.588-13.067 7.834l-9.812-1.295a31.862 31.862 0 0 1-6.655-1.629l-2.783-1.045c.853 5.035 4.996 8.878 10.11 9.379l9.582.947a29.05 29.05 0 0 0 6.389-.068l9.148-1.099c5.285-.645 9.422-4.829 9.979-10.091l3.537-34.426-4.81.243z" opacity=".22" style="mix-blend-mode:multiply"/>
            <path fill="#FF6000" fill-rule="nonzero" d="M84.042 203.204l.945-10.492-9.987.439a113.528 113.528 0 0 1-21.216.947l-22.291.992.976 5.508c23.236 4.455 41.8 4.667 51.573 2.606z" opacity=".51" style="mix-blend-mode:multiply"/>
            <path fill="#C32147" fill-rule="nonzero" d="M31.447 188.567c8.897 2.584 29.633 6.819 55.911.319a3.47 3.47 0 0 1 2.943.623 3.425 3.425 0 0 1 1.334 2.68v3.265a3.45 3.45 0 0 1-2.546 3.356c-7.365 2.023-29.862 6.819-59.395.576a3.635 3.635 0 0 1-2.897-3.5l-.038-3.788a3.598 3.598 0 0 1 1.436-2.956 3.647 3.647 0 0 1 3.252-.575z"/>
            <path fill="#FF6000" fill-rule="nonzero" d="M91.604 192.355a3.323 3.323 0 0 0-1.009-2.346 3.366 3.366 0 0 0-2.383-.95c.25.467.378.988.373 1.516v3.16a3.344 3.344 0 0 1-2.44 3.242c-7.066 1.932-28.542 6.546-56.772.697a3.528 3.528 0 0 0 2.288 1.651c28.481 6.061 50.208 1.432 57.405-.53a3.443 3.443 0 0 0 2.569-3.333l-.03-3.107z" opacity=".22" style="mix-blend-mode:multiply"/>
            <path fill="#F9BBC1" fill-rule="nonzero" d="M157.685 106.822h5.619s3.758 14.91 10.322 20.031c6.564 5.121-7.974 8.546-7.974 8.546l-6.564.97s-3.278-10.872-5.779-13.827c-2.5-2.954 4.376-15.72 4.376-15.72z"/>
            <path fill="#F9BBC1" fill-rule="nonzero" d="M157.685 106.822h5.619s3.758 14.91 10.322 20.031c6.564 5.121-7.974 8.546-7.974 8.546l-6.564.97s-3.278-10.872-5.779-13.827c-2.5-2.954 4.376-15.72 4.376-15.72z" opacity=".38" style="mix-blend-mode:multiply"/>
            <ellipse cx="148.428" cy="110.984" fill="#F9BBC1" fill-rule="nonzero" rx="18.616" ry="14.796" transform="rotate(-82.89 148.428 110.984)"/>
            <path fill="#F9BBC1" fill-rule="nonzero" d="M150.946 92.375a22.358 22.358 0 0 0-6.9.484c6.32 2.114 10.97 9.41 10.97 18.084 0 9.046-3.178 16.592-9.91 18.334.446.105.896.185 1.35.243 8.08.962 15.636-6.576 16.87-16.827 1.236-10.25-4.322-19.356-12.38-20.318z" opacity=".38" style="mix-blend-mode:multiply"/>
            <path fill="#FF285A" fill-rule="nonzero" d="M171.476 192.689l-61.072 5.91-27.2-51.912 60.782-4.076z"/>
            <path fill="#ED7188" fill-rule="nonzero" d="M174.045 192.462l-61.072 5.909-27.2-51.911 60.774-4.068z"/>
            <path fill="#F58EA6" fill-rule="nonzero" d="M88.76 148.127l56.72-3.796 25.562 46.555-56.986 5.508z" opacity=".71"/>
            <path fill="#ED7188" fill-rule="nonzero" d="M137.2 152.453l-39.375 2.909-1.875-3.16 39.375-2.909zM149.383 158.104l-48.12 3.402-1.875-3.16 48.12-3.409zM137.818 164.87l-33.124 2.78-1.875-3.16 33.124-2.787zM156.252 170.393l-48.127 3.409-1.876-3.167 48.128-3.402z"/>
            <path fill="#9AC6FC" fill-rule="nonzero" d="M159.682 176.537l-48.12 3.409-1.875-3.167 48.12-3.401zM163.12 182.68l-48.127 3.41-1.875-3.16 48.127-3.408z"/>
            <path fill="#FF285A" fill-rule="nonzero" d="M173.108 143.839a16.573 16.573 0 0 0-1.007-6.5c-.998-2.637-2.897-5.486-6.45-5.531-4.063-.06-7.844.871-8.553 3.212-1.76 5.788-2.676 7.402-7.075 17.281a125.456 125.456 0 0 1-20.309 31.062l17.191 6.212s24.914-11.932 26.203-45.736z"/>
            <ellipse cx="132.519" cy="241.916" fill="#ECF0F1" fill-rule="nonzero" rx="111.119" ry="7.481"/>
            <path fill="#F9BBC1" fill-rule="nonzero" d="M69.603 215.084s-11.23 11.44-19.364 13.955c-8.134 2.515-28.13 8.424-20.995 11.765 7.135 3.341 19.73.818 33.063-.553 8.546-.879 4.376-6.47 10.002-13.925.877-1.106-2.706-11.242-2.706-11.242z"/>
            <path fill="#ECF0F1" fill-rule="nonzero" d="M126.71 168.893a6.318 6.318 0 0 0-5.93 1.401c-4.956 4.485-14.416 14.357-7.197 18.66 28.321 16.864 36.349 26.137 53.517 26.13 28.245 0 40.649-9.273 42.532-23.168l-82.921-23.023z"/>
            <path fill="#ECF0F1" fill-rule="nonzero" d="M129.714 192.681s-7.272-2.204-10.94 7.144c-5 12.736-11.343 14.463-27.193 21.744-16.504 7.576-21.566 10.56-21.566 10.56l-11.878-8.075s52.602-57.662 65.326-55.487c18.678 3.19 6.251 24.114 6.251 24.114z"/>
            <path fill="#DA1C5C" fill-rule="nonzero" d="M196.29 188.211c-4.573 6.357-13.226 11.364-28.763 13.781-14.012 2.205-26.72-4.136-47.182-13.06-3.293-1.433-4.68.4-5.481 3.886 0 0 1.73 11.705-25.966 25.758-13.181 6.697-17.595 12.175-19.135 13.372l.252.174s5.062-2.977 21.566-10.56c15.85-7.281 22.193-9.009 27.194-21.744.74-2.098 2.01-3.97 3.69-5.44 21.345 13.41 29.411 20.698 44.635 20.698 28.245 0 40.649-9.273 42.532-23.168l-13.341-3.697z" opacity=".11" style="mix-blend-mode:multiply"/>
            <path fill="#FF285A" fill-rule="nonzero" d="M169.715 121.709a23.812 23.812 0 0 1-12.67 10.447s-1.083 8.03 1.73 19.834c2.813 11.804 4.643 27.024 4.643 27.024s6.922 17.705 31.302 16.152c24.38-1.553 18.739-11.493 18.739-11.493s-9.56-30.667-19.059-43.183c-10.62-13.97-20.309-21.417-24.685-18.781z"/>
            <path fill="#9D9093" fill-rule="nonzero" d="M156.404 103.67a6.61 6.61 0 0 0-3.811 0c-4.201 1.326-14.188 3.925-22.109 1.766-10.314-2.811-11.435-6.614-11.435-6.614s4.216 1.94 7.19 1.94c0 0-6.1-3.266-7.19-6.82 0 0 5.001 2.918 10.627 2.387 0 0-4.574-.212-5.473-2.386 4.443.697 8.987.378 13.287-.932 0 0-8.126-.16-9.224-1.712 0 0 8.912.31 14.378-1.864 5.466-2.174 17.404-2.795 21.346 4.97 3.636 7.008-1.822 10.902-7.586 9.265z"/>
            <path fill="#9D9093" fill-rule="nonzero" d="M154.087 97.019l-6.19 4.629s11.023 0 11.534 7.174c.343 4.69 2.813 10.713 11.565 11.023 0 0-2.89-2.795-3.202-3.788 0 0 2.737 1.788 5.39 1.084 0 0-4.765-2.713-5.779-5.357 0 0 1.8 1.864 3.903 1.864 0 0-4.688-3.879-4.917-5.508a3.64 3.64 0 0 0 3.438.31 5.176 5.176 0 0 1-2.874-2.386c-1.097-1.894-.846-6.659-2.416-10.485-1.57-3.826-6.496-3.03-6.496-3.03l-3.956 4.47z"/>
            <path fill="#F58EA6" fill-rule="nonzero" d="M186.281 182.741s5.657-28.576 27.818-21.432c26.507 8.553 45.238 66.517 6.861 75.17-19.691 4.439-72.827 3.643-88.433 2.977-3.709-.148-7.3-1.34-10.352-3.44-3.301-2.273-6.694-5.826-6.861-10.72-.313-9.63 6.25-22.986 35.312-22.364 29.06.62 35.655-20.19 35.655-20.19z"/>
            <path fill="#E66373" fill-rule="nonzero" d="M230.337 173.582a10.994 10.994 0 0 0-6.38-4c-22.825-4.644-25.234 24.387-25.234 24.387s-4.186 21.41-33.14 24.016c-24.51 2.212-31.866 12.576-32.705 21.493 16.01.667 68.566 1.417 88.136-2.992 29.632-6.705 25.15-42.896 9.323-62.904z" opacity=".33" style="mix-blend-mode:multiply"/>
            <path fill="#DA1C5C" fill-rule="nonzero" d="M173.153 148.55c-.052-.481-.136-.96-.251-1.431-1.075 12.372-5.337 21.6-10.155 28.228a35.58 35.58 0 0 0 1.144 4.72 40.226 40.226 0 0 0 3.3 4.81s8.15-18.288 5.962-36.326z" opacity=".57" style="mix-blend-mode:multiply"/>
            <path fill="#9D9093" fill-rule="nonzero" d="M167.375 111.77s1.799 1.863 3.903 1.863c0 0-4.689-3.879-4.917-5.508a3.64 3.64 0 0 0 3.438.31 5.176 5.176 0 0 1-2.844-2.37c-1.06-1.826-.869-6.327-2.287-10.084a12.08 12.08 0 0 0-.678-1.599c-2.165-4.242-6.717-5.977-11.29-6.326.068.205.373.432 1.006.69 4.947 1.977 7.074 12.023 5.039 17.788.344.713.549 1.484.602 2.273.343 4.69 2.813 10.712 11.565 11.023 0 0-2.89-2.795-3.202-3.788 0 0 2.737 1.788 5.39 1.083.053 0-4.711-2.727-5.725-5.356z" opacity=".39" style="mix-blend-mode:multiply"/>
            <path fill="#F9BBC1" fill-rule="nonzero" d="M155.337 105.42s.762-4.47 2.92-3.636c2.157.833 3.05 3.515 2.287 6.515-.762 3-4.338 1.349-4.338 1.349"/>
            <path fill="#F9BBC1" fill-rule="nonzero" d="M155.337 105.42s.762-4.47 2.92-3.636c2.157.833 3.05 3.515 2.287 6.515-.762 3-4.338 1.349-4.338 1.349" opacity=".38" style="mix-blend-mode:multiply"/>
            <path fill="#9D9093" fill-rule="nonzero" d="M53.853 227.372c-17.382 4.758-31.036 10.41-24.61 13.432 7.121 3.349 19.73.818 33.064-.553 6.099-.629 5.718-3.66 7.052-8.053-2.706.257-8.927-.068-15.506-4.826z"/>
            <ellipse cx="127.089" cy="59.472" fill="#FF7300" fill-rule="nonzero" rx="20.853" ry="20.946" transform="rotate(-67.5 127.089 59.472)"/>
            <ellipse cx="126.322" cy="58.714" fill="#FFB300" fill-rule="nonzero" rx="20.965" ry="20.834"/>
            <ellipse cx="126.322" cy="58.714" fill="#FFB300" fill-rule="nonzero" opacity=".42" rx="17.915" ry="17.804" style="mix-blend-mode:multiply"/>
            <path fill="#FFB300" fill-rule="nonzero" d="M126.322 42.153c9.204 0 16.665 7.415 16.665 16.561 0 9.147-7.461 16.561-16.665 16.561-9.204 0-16.665-7.414-16.665-16.56.008-9.144 7.465-16.554 16.665-16.562m0-1.242c-9.894 0-17.915 7.97-17.915 17.803 0 9.833 8.02 17.804 17.915 17.804 9.894 0 17.915-7.971 17.915-17.804 0-9.832-8.02-17.803-17.915-17.803z"/>
            <text fill="#F95706" font-family="Montserrat-SemiBold, Montserrat SemiBold" font-size="31.16" font-weight="500" opacity=".25" style="mix-blend-mode:multiply" transform="translate(119.69 43.183)">
                <tspan x=".084" y="30.576">$</tspan>
            </text>
            <text fill="#FFCB00" font-family="Montserrat-SemiBold, Montserrat SemiBold" font-size="31.16" font-weight="500">
                <tspan x="119.148" y="73.138">$</tspan>
            </text>
            <ellipse cx="71.432" cy="38.259" fill="#FF7300" fill-rule="nonzero" rx="14.104" ry="14.016"/>
            <ellipse cx="70.67" cy="37.501" fill="#FFB300" fill-rule="nonzero" rx="14.104" ry="14.016"/>
            <ellipse cx="70.674" cy="37.501" fill="#FFB300" fill-rule="nonzero" opacity=".42" rx="11.754" ry="11.806" style="mix-blend-mode:multiply" transform="rotate(-67.5 70.674 37.501)"/>
            <path fill="#FFB300" fill-rule="nonzero" d="M70.67 26.584c6.067 0 10.986 4.888 10.986 10.917 0 6.03-4.919 10.917-10.986 10.917-6.067 0-10.985-4.887-10.985-10.917.008-6.026 4.921-10.908 10.985-10.917m0-.825c-6.526 0-11.816 5.257-11.816 11.742 0 6.486 5.29 11.743 11.816 11.743 6.526 0 11.817-5.257 11.817-11.743 0-3.114-1.245-6.1-3.461-8.303a11.854 11.854 0 0 0-8.356-3.44z"/>
            <text fill="#F95706" font-family="Montserrat-SemiBold, Montserrat SemiBold" font-size="20.64" font-weight="500" opacity=".25" style="mix-blend-mode:multiply" transform="translate(65.562 27.274)">
                <tspan x=".686" y="20.242">$</tspan>
            </text>
            <text fill="#FFCB00" font-family="Montserrat-SemiBold, Montserrat SemiBold" font-size="20.64" font-weight="500">
                <tspan x="65.837" y="47.107">$</tspan>
            </text>
            <ellipse cx="112.98" cy="15.911" fill="#FF7300" fill-rule="nonzero" rx="11.378" ry="11.421" transform="rotate(-63.56 112.98 15.91)"/>
            <ellipse cx="112.981" cy="15.152" fill="#FFB300" fill-rule="nonzero" rx="11.435" ry="11.364"/>
            <ellipse cx="112.6" cy="15.531" fill="#FFB300" fill-rule="nonzero" opacity=".42" rx="9.529" ry="9.47" style="mix-blend-mode:multiply"/>
            <path fill="#FFB300" fill-rule="nonzero" d="M112.6 6.735a8.852 8.852 0 0 1 8.177 5.43 8.756 8.756 0 0 1-1.919 9.585 8.891 8.891 0 0 1-9.646 1.907 8.795 8.795 0 0 1-5.463-8.126c.004-4.856 3.964-8.792 8.85-8.796m0-.674c-5.262 0-9.529 4.24-9.529 9.47S107.337 25 112.6 25c5.263 0 9.529-4.24 9.529-9.47a9.44 9.44 0 0 0-2.791-6.696A9.56 9.56 0 0 0 112.6 6.06z"/>
            <text fill="#F95706" font-family="Montserrat-SemiBold, Montserrat SemiBold" font-size="16.89" font-weight="500" opacity=".25" style="mix-blend-mode:multiply" transform="translate(109.017 7.576)">
                <tspan x=".107" y="16.068">$</tspan>
            </text>
            <text fill="#FFCB00" font-family="Montserrat-SemiBold, Montserrat SemiBold" font-size="16.89" font-weight="500">
                <tspan x="108.78" y="23.311">$</tspan>
            </text>
            <circle cx="80.199" cy="103.79" r="25.079" fill="#FF7300" fill-rule="nonzero" transform="rotate(-45 80.199 103.79)"/>
            <ellipse cx="79.44" cy="103.028" fill="#FFB300" fill-rule="nonzero" rx="25.009" ry="25.149" transform="rotate(-76.72 79.44 103.028)"/>
            <ellipse cx="79.437" cy="103.034" fill="#FFB300" fill-rule="nonzero" opacity=".42" rx="21.346" ry="21.213" style="mix-blend-mode:multiply"/>
            <path fill="#FFB300" fill-rule="nonzero" d="M79.437 83.336c10.947 0 19.821 8.82 19.821 19.698 0 10.879-8.874 19.698-19.82 19.698-10.948 0-19.822-8.82-19.822-19.698.03-10.867 8.886-19.668 19.821-19.698m0-1.515c-8.633 0-16.417 5.169-19.72 13.095a21.116 21.116 0 0 0 4.626 23.118c6.105 6.067 15.287 7.882 23.263 4.598 7.976-3.283 13.177-11.018 13.177-19.598 0-11.716-9.557-21.213-21.346-21.213z"/>
            <text fill="#F95706" font-family="Montserrat-SemiBold, Montserrat SemiBold" font-size="37.29" font-weight="500" opacity=".25" style="mix-blend-mode:multiply" transform="translate(70.899 84.852)">
                <tspan x=".435" y="36.212">$</tspan>
            </text>
            <text fill="#FFCB00" font-family="Montserrat-SemiBold, Montserrat SemiBold" font-size="37.29" font-weight="500">
                <tspan x="70.586" y="120.321">$</tspan>
            </text>
        </g>
    </g>
</svg>
