<svg xmlns="http://www.w3.org/2000/svg" width="64" height="64" viewBox="0 0 64 64">
    <g fill="#D83139">
        <path d="M62.609 0H1.39C.623 0 0 .623 0 1.391V62.61C0 63.377.623 64 1.391 64H9.74c.768 0 1.391-.623 1.391-1.391v-1.392h40.348c.369 0 .724-.146.984-.407l8.348-8.348c.261-.26.407-.615.407-.984V11.13h1.392c.768 0 1.391-.623 1.391-1.39V1.39C64 .623 63.377 0 62.609 0zM8.348 61.217H2.783V11.13h5.565v50.087zm0-52.87H2.783V2.784h5.565v5.565zm50.087 42.555l-7.533 7.533h-.815v-8.348h8.348v.815zm0-3.598h-9.74c-.767 0-1.39.624-1.39 1.392v9.739H11.13V33.39h6.957a1.392 1.392 0 0 0 0-2.782H11.13V11.13H30.61v6.957a1.392 1.392 0 0 0 2.782 0V11.13h25.044v36.174zm2.782-38.956H11.13V2.783h50.087v5.565z"/>
        <path d="M32 25.043c-.768 0-1.391.624-1.391 1.392v4.174h-4.174a1.392 1.392 0 0 0 0 2.782H32c.768 0 1.391-.623 1.391-1.391v-5.565c0-.768-.623-1.392-1.391-1.392z"/>
    </g>
</svg>
