<?xml version="1.0" encoding="UTF-8"?>
<svg width="28px" height="32px" viewBox="0 0 28 32" version="1.1" xmlns="http://www.w3.org/2000/svg" xmlns:xlink="http://www.w3.org/1999/xlink">
    <!-- Generator: Sketch 58 (84663) - https://sketch.com -->
    <title>1_focus</title>
    <desc>Created with Sketch.</desc>
    <g id="Page-3" stroke="none" stroke-width="1" fill="none" fill-rule="evenodd">
        <g id="Главная_страница" transform="translate(-171.000000, -4976.000000)">
            <g id="Group-18" transform="translate(1.000000, 4662.000000)">
                <g id="Group-47" transform="translate(150.000000, 128.000000)">
                    <g id="Group-12" transform="translate(0.000000, 168.000000)">
                        <g id="1_focus" transform="translate(18.000000, 18.000000)">
                            <rect id="Rectangle" stroke="#979797" fill="#D8D8D8" opacity="0" x="0.5" y="0.5" width="31" height="31"></rect>
                            <g id="medal" transform="translate(2.000000, 0.000000)" fill="#FFFFFF" fill-rule="nonzero">
                                <path d="M27.0729458,26.5674877 L22.406936,18.3704433 C22.8798424,18.1497537 23.1635862,17.6453202 23.1320591,17.0778325 L22.7852611,14.1773399 L24.771468,12.0965517 C25.2128473,11.6551724 25.2443744,10.8985222 24.8029951,10.3625616 L22.8167882,8.21871921 L23.2266404,5.28669951 C23.2896946,4.65615764 22.8483153,4.02561576 22.2177734,3.89950739 L19.3488079,3.3320197 L17.9616158,0.778325123 C17.6778719,0.179310345 16.9842759,-0.0729064039 16.353734,0.179310345 L16.3222069,0.179310345 L13.673931,1.408867 L11.0887094,0.147783251 C10.8049655,-0.00985221675 10.4581675,-0.0413793103 10.1428966,0.0532019704 C9.82762562,0.147783251 9.57540887,0.368472906 9.4177734,0.652216749 L7.99905419,3.20591133 L5.13008867,3.71034483 C4.4680197,3.8364532 4.02664039,4.43546798 4.08969458,5.12906404 L4.43649261,8.02955665 L2.45028571,10.1103448 C2.0089064,10.5517241 1.97737931,11.3083744 2.41875862,11.844335 L4.40496552,13.9881773 L3.9951133,16.920197 C3.93205911,17.4876847 4.27885714,18.0236453 4.81481773,18.244335 L0.117280788,26.5674877 C-0.00882758621,26.7566502 0.0226995074,27.008867 0.117280788,27.1980296 C0.243389163,27.3871921 0.432551724,27.5133005 0.653241379,27.5133005 L5.69757635,27.5133005 L7.99905419,31.5172414 C8.12516256,31.7064039 8.31432512,31.8325123 8.53501478,31.8325123 C8.75570443,31.8325123 8.97639409,31.7064039 9.07097537,31.5172414 L13.5793498,23.8246305 L18.0877241,31.6118227 C18.2138325,31.8009852 18.4029951,31.9270936 18.6236847,31.9270936 C18.8443744,31.9270936 19.065064,31.8009852 19.1596453,31.6118227 L21.4611232,27.5133005 L26.5054581,27.5133005 C26.7261478,27.5133005 26.9468374,27.3871921 27.0414187,27.1980296 C27.1990542,27.008867 27.1990542,26.7566502 27.0729458,26.5674877 Z M8.56654187,29.9408867 L6.61186207,26.5674877 C6.48575369,26.3783251 6.29659113,26.2522167 6.07590148,26.2522167 L1.72516256,26.2522167 L6.07590148,18.5596059 L7.87294581,18.8748768 L9.26013793,21.4285714 C9.54388177,22.0275862 10.2374778,22.279803 10.8680197,22.0275862 L10.8995468,22.0275862 L12.1921576,21.4285714 L12.8226995,22.5320197 L8.56654187,29.9408867 Z M10.3951133,20.8926108 C10.3635862,20.8926108 10.3635862,20.8926108 10.3635862,20.8926108 L8.97639409,18.2758621 C8.78723153,17.9605911 8.47196059,17.7083744 8.09363547,17.6768473 L5.19314286,17.1408867 L5.60299507,14.2403941 C5.66604926,13.862069 5.53994089,13.4522167 5.28772414,13.2 L3.33304433,11.0561576 L5.31925123,8.97536946 C5.60299507,8.69162562 5.72910345,8.31330049 5.66604926,7.93497537 L5.31925123,5.06600985 C5.31925123,5.06600985 5.31925123,5.03448276 5.35077833,5.00295567 L8.21974384,4.49852217 C8.56654187,4.43546798 8.9133399,4.21477833 9.10250246,3.8679803 L10.5212217,1.31428571 L13.1064433,2.57536946 C13.4532414,2.76453202 13.8946207,2.76453202 14.2414187,2.57536946 L16.8581675,1.3773399 C16.8896946,1.3773399 16.8896946,1.3773399 16.8896946,1.3773399 L18.2768867,3.99408867 C18.4660493,4.30935961 18.7813202,4.56157635 19.1281182,4.59310345 L21.9970837,5.16059113 L21.5872315,8.06108374 C21.5241773,8.43940887 21.6502857,8.84926108 21.9025025,9.10147783 L23.8887094,11.2453202 L21.8709754,13.3261084 C21.5872315,13.6098522 21.4611232,13.9881773 21.5241773,14.3665025 L21.8709754,17.2669951 L19.0335369,17.7399015 C18.6867389,17.8029557 18.3399409,18.0236453 18.1507783,18.3704433 L16.7320591,20.9241379 L14.1468374,19.6630542 C13.8000394,19.4738916 13.3586601,19.4738916 13.0118621,19.6630542 L10.3951133,20.8926108 Z M21.1143251,26.2522167 C20.8936355,26.2522167 20.6729458,26.3783251 20.5783645,26.5674877 L18.6236847,30.035468 L14.1783645,22.3428571 C14.1468374,22.2482759 14.1153103,22.1852217 14.0522562,22.1221675 L13.3586601,20.8926108 L13.5793498,20.7980296 L16.1645714,22.0591133 C16.353734,22.1536946 16.5428966,22.1852217 16.7320591,22.1852217 C17.1734384,22.1852217 17.6148177,21.964532 17.8355074,21.5546798 L19.2542266,19.0009852 L21.1458522,18.6541872 L25.465064,26.2522167 L21.1143251,26.2522167 L21.1143251,26.2522167 Z" id="Shape"></path>
                                <path d="M19.8847685,11.1192118 C19.8847685,7.65123153 17.04733,4.8137931 13.5793498,4.8137931 C10.1113695,4.8137931 7.27393103,7.65123153 7.27393103,11.1192118 C7.27393103,14.5871921 10.1113695,17.4246305 13.5793498,17.4246305 C17.04733,17.4246305 19.8847685,14.5871921 19.8847685,11.1192118 Z M13.5793498,16.1635468 C10.8049655,16.1635468 8.53501478,13.8935961 8.53501478,11.1192118 C8.53501478,8.34482759 10.8049655,6.07487685 13.5793498,6.07487685 C16.353734,6.07487685 18.6236847,8.34482759 18.6236847,11.1192118 C18.6236847,13.8935961 16.353734,16.1635468 13.5793498,16.1635468 Z" id="Shape"></path>
                            </g>
                        </g>
                    </g>
                </g>
            </g>
        </g>
    </g>
</svg>