<?xml version="1.0" encoding="UTF-8"?>
<svg width="32px" height="32px" viewBox="0 0 32 32" version="1.1" xmlns="http://www.w3.org/2000/svg" xmlns:xlink="http://www.w3.org/1999/xlink">
    <!-- Generator: Sketch 58 (84663) - https://sketch.com -->
    <title>2_focus</title>
    <desc>Created with Sketch.</desc>
    <g id="Page-3" stroke="none" stroke-width="1" fill="none" fill-rule="evenodd">
        <g id="Главная_страница" transform="translate(-559.000000, -4976.000000)">
            <g id="Group-18" transform="translate(1.000000, 4662.000000)">
                <g id="Group-47" transform="translate(150.000000, 128.000000)">
                    <g id="Group-12-Copy" transform="translate(390.000000, 168.000000)">
                        <g id="Group-9">
                            <g id="2_focus" transform="translate(18.000000, 18.000000)">
                                <rect id="Rectangle" stroke="#979797" fill="#D8D8D8" opacity="0" x="0.5" y="0.5" width="31" height="31"></rect>
                                <g id="shampoo-(1)" fill="#FFFFFF" fill-rule="nonzero">
                                    <polygon id="Path" points="2.06451613 14.4516129 3.09677419 14.4516129 3.09677419 23.7419355 2.06451613 23.7419355"></polygon>
                                    <polygon id="Path" points="2.06451613 24.7741935 3.09677419 24.7741935 3.09677419 25.8064516 2.06451613 25.8064516"></polygon>
                                    <path d="M30.4516129,23.7419355 L18.5806452,23.7419355 L18.5806452,22.5538065 C18.9145806,22.6534194 19.2614194,22.7096774 19.6129032,22.7096774 C20.6663226,22.7096774 21.6443871,22.2570323 22.32,21.488 C22.8965161,22.2420645 23.8012903,22.7096774 24.7741935,22.7096774 C25.4967742,22.7096774 26.1806452,22.4629677 26.7323871,22.0087742 C27.099871,22.1316129 27.4812903,22.1935484 27.8709677,22.1935484 C29.8627097,22.1935484 31.483871,20.5729032 31.483871,18.5806452 C31.483871,17.5736774 31.0725161,16.6332903 30.3447742,15.9509677 C30.416,15.6258065 30.4516129,15.2965161 30.4516129,14.9677419 C30.4516129,12.4067097 28.368,10.3225806 25.8064516,10.3225806 C24.7803871,10.3225806 23.7997419,10.6565161 22.9940645,11.2732903 C22.1207742,10.3463226 20.8929032,9.80645161 19.6129032,9.80645161 C17.4250323,9.80645161 15.5494194,11.339871 15.0823226,13.4384516 C14.491871,13.4952258 13.9272258,13.6779355 13.4193548,13.9716129 L13.4193548,9.80645161 C13.4193548,8.95277419 12.7246452,8.25806452 11.8709677,8.25806452 L10.3225806,8.25806452 L10.3225806,5.67741935 C10.3225806,5.39251613 10.091871,5.16129032 9.80645161,5.16129032 L9.29032258,5.16129032 L9.29032258,4.12903226 L12.3870968,4.12903226 L12.3870968,5.67741935 C12.3870968,5.96232258 12.6178065,6.19354839 12.9032258,6.19354839 L14.9677419,6.19354839 C15.2531613,6.19354839 15.483871,5.96232258 15.483871,5.67741935 L15.483871,3.61290323 C15.483871,2.18993548 14.3261935,1.03225806 12.9032258,1.03225806 L9.29032258,1.03225806 L9.29032258,0.516129032 C9.29032258,0.231225806 9.0596129,0 8.77419355,0 L4.64516129,0 C4.35974194,0 4.12903226,0.231225806 4.12903226,0.516129032 L4.12903226,5.16129032 L3.61290323,5.16129032 C3.32748387,5.16129032 3.09677419,5.39251613 3.09677419,5.67741935 L3.09677419,8.25806452 L1.5483871,8.25806452 C0.694709677,8.25806452 0,8.95277419 0,9.80645161 L0,31.483871 C0,31.7687742 0.230709677,32 0.516129032,32 L9.80645161,32 L18.0645161,32 C18.3499355,32 18.5806452,31.7687742 18.5806452,31.483871 L18.5806452,30.9677419 L27.8709677,30.9677419 C28.7246452,30.9677419 29.4193548,30.2730323 29.4193548,29.4193548 C29.4193548,28.5656774 28.7246452,27.8709677 27.8709677,27.8709677 L25.2903226,27.8709677 C25.0054194,27.8709677 24.7741935,27.6392258 24.7741935,27.3548387 C24.7741935,27.0704516 25.0054194,26.8387097 25.2903226,26.8387097 L30.4516129,26.8387097 C31.3052903,26.8387097 32,26.144 32,25.2903226 C32,24.4366452 31.3052903,23.7419355 30.4516129,23.7419355 Z M17.5483871,21.6774194 L10.3225806,21.6774194 L10.3225806,20.1290323 C10.3225806,19.8446452 10.5538065,19.6129032 10.8387097,19.6129032 L17.0322581,19.6129032 C17.3171613,19.6129032 17.5483871,19.8446452 17.5483871,20.1290323 L17.5483871,21.6774194 Z M15.483871,18.5806452 L12.3870968,18.5806452 L12.3870968,16.516129 L15.483871,16.516129 L15.483871,18.5806452 Z M11.8709677,15.483871 C11.5855484,15.483871 11.3548387,15.7150968 11.3548387,16 L11.3548387,18.5806452 L10.8387097,18.5806452 C9.98503226,18.5806452 9.29032258,19.2753548 9.29032258,20.1290323 L9.29032258,26.8387097 L1.03225806,26.8387097 L1.03225806,13.4193548 L12.3870968,13.4193548 L12.3870968,15.483871 L11.8709677,15.483871 Z M10.3225806,22.7096774 L17.5483871,22.7096774 L17.5483871,27.8709677 L10.3225806,27.8709677 L10.3225806,22.7096774 Z M15.4632258,14.4510968 C15.4756129,14.452129 15.5060645,14.4531613 15.5189677,14.4531613 C15.7796129,14.4531613 15.9989677,14.2596129 16.0309677,14.0010323 C16.256,12.1981935 17.7956129,10.8387097 19.6129032,10.8387097 C20.7685161,10.8387097 21.8276129,11.3754839 22.5187097,12.3117419 C22.6074839,12.4314839 22.7432258,12.5073548 22.891871,12.5197419 C23.0389677,12.5331613 23.1860645,12.4794839 23.2934194,12.3757419 C23.972129,11.7176774 24.8650323,11.3548387 25.8064516,11.3548387 C27.7981935,11.3548387 29.4193548,12.9754839 29.4193548,14.9677419 C29.4193548,15.3094194 29.3692903,15.6531613 29.2707097,15.9891613 C29.2108387,16.1930323 29.2815484,16.4123871 29.4492903,16.5424516 C30.0861935,17.0363871 30.4516129,17.7796129 30.4516129,18.5806452 C30.4516129,20.0036129 29.2939355,21.1612903 27.8709677,21.1612903 C27.5112258,21.1612903 27.1602581,21.0869677 26.8289032,20.939871 C26.6317419,20.8531613 26.4015484,20.8970323 26.2503226,21.0513548 C25.8570323,21.4549677 25.3326452,21.6774194 24.7741935,21.6774194 C23.9230968,21.6774194 23.1489032,21.1370323 22.848,20.3334194 C22.7762581,20.1419355 22.5992258,20.0113548 22.3953548,19.9994839 C22.1806452,19.9865806 21.9994839,20.0965161 21.9060645,20.2776774 C21.4596129,21.1406452 20.5811613,21.6774194 19.6129032,21.6774194 C19.2557419,21.6774194 18.9047742,21.6010323 18.5806452,21.4590968 L18.5806452,20.1290323 C18.5806452,19.2753548 17.8859355,18.5806452 17.0322581,18.5806452 L16.516129,18.5806452 L16.516129,16 C16.516129,15.7150968 16.2854194,15.483871 16,15.483871 L13.4193548,15.483871 L13.4193548,15.2454194 C13.988129,14.7344516 14.7138065,14.4516129 15.4632258,14.4510968 Z M12.9032258,2.06451613 C13.7569032,2.06451613 14.4516129,2.75922581 14.4516129,3.61290323 L14.4516129,5.16129032 L13.4193548,5.16129032 L13.4193548,3.61290323 C13.4193548,3.328 13.1886452,3.09677419 12.9032258,3.09677419 L9.29032258,3.09677419 L9.29032258,2.06451613 L12.9032258,2.06451613 Z M5.16129032,1.03225806 L8.25806452,1.03225806 L8.25806452,5.16129032 L5.16129032,5.16129032 L5.16129032,1.03225806 Z M4.12903226,6.19354839 L9.29032258,6.19354839 L9.29032258,8.25806452 L4.12903226,8.25806452 L4.12903226,6.19354839 Z M1.5483871,9.29032258 L11.8709677,9.29032258 C12.155871,9.29032258 12.3870968,9.52206452 12.3870968,9.80645161 L12.3870968,12.3870968 L1.03225806,12.3870968 L1.03225806,9.80645161 C1.03225806,9.52206452 1.26348387,9.29032258 1.5483871,9.29032258 Z M1.03225806,27.8709677 L9.29032258,27.8709677 L9.29032258,30.9677419 L1.03225806,30.9677419 L1.03225806,27.8709677 Z M10.3225806,30.9677419 L10.3225806,28.9032258 L17.5483871,28.9032258 L17.5483871,30.9677419 L10.3225806,30.9677419 Z M30.4516129,25.8064516 L25.2903226,25.8064516 C24.4366452,25.8064516 23.7419355,26.5011613 23.7419355,27.3548387 C23.7419355,28.2085161 24.4366452,28.9032258 25.2903226,28.9032258 L27.8709677,28.9032258 C28.155871,28.9032258 28.3870968,29.1349677 28.3870968,29.4193548 C28.3870968,29.7037419 28.155871,29.9354839 27.8709677,29.9354839 L18.5806452,29.9354839 L18.5806452,24.7741935 L30.4516129,24.7741935 C30.7365161,24.7741935 30.9677419,25.0059355 30.9677419,25.2903226 C30.9677419,25.5747097 30.7365161,25.8064516 30.4516129,25.8064516 Z" id="Shape"></path>
                                    <path d="M27.3548387,14.9677419 L28.3870968,14.9677419 C28.3870968,13.5447742 27.2294194,12.3870968 25.8064516,12.3870968 L25.8064516,13.4193548 C26.660129,13.4193548 27.3548387,14.1140645 27.3548387,14.9677419 Z" id="Path"></path>
                                </g>
                            </g>
                        </g>
                    </g>
                </g>
            </g>
        </g>
    </g>
</svg>