<svg xmlns="http://www.w3.org/2000/svg" width="53" height="64" viewBox="0 0 53 64">
    <g fill="#D83139" fill-rule="nonzero">
        <path d="M38.75 53.625a1.25 1.25 0 1 0 0 2.5 1.25 1.25 0 0 0 0-2.5zM13.75 53.625a1.25 1.25 0 1 0 0 2.5 1.25 1.25 0 0 0 0-2.5z"/>
        <path d="M50.206 47.151a14.126 14.126 0 0 0-5.606-5.026 1.243 1.243 0 0 0-.71-.327 13.076 13.076 0 0 0-5.14-1.048H35v-3.298a14.338 14.338 0 0 0 4.487-7.077H40c2.757 0 5-2.243 5-5a4.98 4.98 0 0 0-1.328-3.389A3.725 3.725 0 0 0 45 19.125a3.756 3.756 0 0 0-2.543-3.55c-.441-5.747-4.476-10.66-10.03-12.199C32.097 1.657 30.679 0 28.75 0h-5c-1.93 0-3.348 1.657-3.677 3.376-5.554 1.54-9.588 6.45-10.03 12.198a3.737 3.737 0 0 0-1.444.9A3.725 3.725 0 0 0 7.5 19.125c0 1.145.517 2.172 1.329 2.86a4.98 4.98 0 0 0-1.329 3.39c0 2.757 2.243 5 5 5h.51a14.368 14.368 0 0 0 4.49 7.076v3.299h-3.75c-1.775 0-3.502.353-5.14 1.048-.273.03-.519.15-.71.327a14.126 14.126 0 0 0-5.606 5.026A14.212 14.212 0 0 0 0 54.875v7.875C0 63.44.56 64 1.25 64h50c.69 0 1.25-.56 1.25-1.25v-7.875c0-2.73-.793-5.4-2.294-7.724zM7.5 61.5h-5v-6.625c0-3.802 1.948-7.446 5-9.61V61.5zM40 27.875h-.057c.037-.416.057-.833.057-1.25v-3.75c1.379 0 2.5 1.122 2.5 2.5s-1.121 2.5-2.5 2.5zM20 6.017v5.608a1.25 1.25 0 1 0 2.5 0V4.383v-.258c0-.775.654-1.625 1.25-1.625h5c.596 0 1.25.85 1.25 1.625v7.5a1.25 1.25 0 1 0 2.5 0V6.017a11.3 11.3 0 0 1 7.43 9.358H12.57A11.3 11.3 0 0 1 20 6.017zm-7.5 21.858a2.503 2.503 0 0 1-2.5-2.5c0-1.378 1.122-2.5 2.5-2.5v3.75c0 .417.02.834.057 1.25H12.5zm0-7.5h-1.25a1.251 1.251 0 0 1-.884-2.134c.237-.236.55-.366.884-.366h30a1.251 1.251 0 0 1 .884 2.134c-.237.236-.55.366-.884.366H12.5zm2.727 8.523l-.008-.04A11.529 11.529 0 0 1 15 26.624v-3.75h22.5v3.75c0 .747-.074 1.498-.22 2.232l-.007.04a11.841 11.841 0 0 1-4.356 7.03c-1.956 1.52-4.261 2.323-6.667 2.323-2.406 0-4.711-.803-6.669-2.324a11.854 11.854 0 0 1-4.354-7.029zM25 61.5H15v-2.875a1.25 1.25 0 1 0-2.5 0V61.5H10V43.934a10.58 10.58 0 0 1 2.5-.61v7.801a1.25 1.25 0 1 0 2.5 0V43.25h3.214L25 50.375V61.5zm-5-20v-2.328a13.135 13.135 0 0 0 6.25 1.578c2.197 0 4.321-.541 6.25-1.578V41.5l-6.25 6.563L20 41.5zm22.5 20H40v-2.875a1.25 1.25 0 1 0-2.5 0V61.5h-10V50.375l6.786-7.125H37.5v7.875a1.25 1.25 0 1 0 2.5 0v-7.801c.853.1 1.689.305 2.5.61V61.5zm7.5 0h-5V45.265c3.052 2.163 5 5.808 5 9.61V61.5z"/>
    </g>
</svg>
