<?xml version="1.0" encoding="UTF-8"?>
<svg width="32px" height="32px" viewBox="0 0 32 32" version="1.1" xmlns="http://www.w3.org/2000/svg" xmlns:xlink="http://www.w3.org/1999/xlink">
    <!-- Generator: Sketch 58 (84663) - https://sketch.com -->
    <title>3_focus</title>
    <desc>Created with Sketch.</desc>
    <g id="Page-3" stroke="none" stroke-width="1" fill="none" fill-rule="evenodd">
        <g id="Главная_страница" transform="translate(-949.000000, -4976.000000)">
            <g id="Group-18" transform="translate(1.000000, 4662.000000)">
                <g id="Group-47" transform="translate(150.000000, 128.000000)">
                    <g id="Group-12-Copy-2" transform="translate(780.000000, 168.000000)">
                        <g id="Group-58">
                            <g id="3_focus" transform="translate(18.000000, 18.000000)">
                                <rect id="Rectangle" stroke="#979797" fill="#D8D8D8" opacity="0" x="0.5" y="0.5" width="31" height="31"></rect>
                                <g id="diamond" fill="#d83139" fill-rule="nonzero">
                                    <path d="M31.4459375,13.8726875 L25.996125,7.706 C25.8775,7.57175 25.7069375,7.494875 25.5278125,7.494875 L6.09725,7.494875 C5.918125,7.494875 5.7475625,7.57175 5.6289375,7.706 L0.1790625,13.8726875 C0.0163125,14.056875 -0.023375,14.3193125 0.077625,14.5434375 C0.1156875,14.6279375 0.1711875,14.7009375 0.2386875,14.75925 C0.24,14.7606875 0.241,14.7623125 0.2423125,14.7638125 L15.3449375,31.78975 C15.4635625,31.9235 15.63375,32 15.8125,32 C15.99125,32 16.1614375,31.9234375 16.2800625,31.78975 L31.3826875,14.7638125 C31.384,14.762375 31.3850625,14.76075 31.3863125,14.75925 C31.45375,14.7009375 31.50925,14.627875 31.547375,14.5434375 C31.648375,14.3193125 31.6086875,14.056875 31.4459375,13.8726875 Z M24.4195625,8.7448125 L21.642,13.2225625 L17.19075,8.7448125 L24.4195625,8.7448125 Z M20.315875,13.6615625 L11.309125,13.6615625 L15.8125,9.131375 L20.315875,13.6615625 Z M14.43425,8.744875 L9.983,13.222625 L7.2054375,8.744875 L14.43425,8.744875 Z M6.00025,9.173375 L8.7843125,13.6615625 L2.0338125,13.6615625 L6.00025,9.173375 Z M2.0443125,14.9115625 L9.4304375,14.9115625 L14.5326875,28.990375 L2.0443125,14.9115625 Z M17.1155,28.96425 L20.680375,19.316 C20.8,18.9921875 20.6345,18.63275 20.31075,18.513125 C19.9868125,18.393375 19.6274375,18.5589375 19.507875,18.88275 L15.8181875,28.8688125 L10.76,14.9115625 L29.5806875,14.9115625 L17.1155,28.96425 Z M22.8406875,13.6615625 L25.62475,9.173375 L29.5911875,13.6615625 L22.8406875,13.6615625 Z" id="Shape"></path>
                                    <path d="M15.8125,0 C15.467375,0 15.1875,0.2798125 15.1875,0.625 L15.1875,3.8445625 C15.1875,4.18975 15.467375,4.4695625 15.8125,4.4695625 C16.157625,4.4695625 16.4375,4.18975 16.4375,3.8445625 L16.4375,0.625 C16.4375,0.2798125 16.157625,0 15.8125,0 Z" id="Path"></path>
                                    <path d="M21.503875,2.47025 C21.2598125,2.2261875 20.8641875,2.2261875 20.6199375,2.47025 L18.3433125,4.7468125 C18.09925,4.990875 18.09925,5.386625 18.3433125,5.6306875 C18.4654375,5.75275 18.625375,5.81375 18.7853125,5.81375 C18.94525,5.81375 19.1051875,5.7526875 19.22725,5.6306875 L21.503875,3.354125 C21.7479375,3.1100625 21.7479375,2.7143125 21.503875,2.47025 Z" id="Path"></path>
                                    <path d="M13.159875,4.7468125 L10.8833125,2.47025 C10.6393125,2.2261875 10.2436875,2.2261875 9.999375,2.47025 C9.7553125,2.7143125 9.7553125,3.1100625 9.999375,3.354125 L12.276,5.6306875 C12.3980625,5.75275 12.558,5.81375 12.7179375,5.81375 C12.877875,5.81375 13.0378125,5.7526875 13.159875,5.6306875 C13.4039375,5.386625 13.4039375,4.990875 13.159875,4.7468125 Z" id="Path"></path>
                                    <circle id="Oval" cx="20.901875" cy="16.7725" r="1"></circle>
                                </g>
                            </g>
                        </g>
                    </g>
                </g>
            </g>
        </g>
    </g>
</svg>