<svg xmlns="http://www.w3.org/2000/svg" width="64" height="64" viewBox="0 0 64 64">
    <g fill="#D83139" fill-rule="nonzero">
        <path d="M22 53h-9a1 1 0 0 0-1 1v5a1 1 0 0 0 1 1h9a1 1 0 0 0 1-1v-5a1 1 0 0 0-1-1zm-1 5h-7v-3h7v3z"/>
        <path d="M63 38H51.328L35.042 26H44a1 1 0 0 0 1-1V1a1 1 0 0 0-1-1H19a1 1 0 0 0-1 1v24a1 1 0 0 0 1 1h9.958L12.672 38H1a1 1 0 0 0-1 1v24a1 1 0 0 0 1 1h25a1 1 0 0 0 1-1V39a1 1 0 0 0-1-1h-9.958L32 26.242 47.958 38H38a1 1 0 0 0-1 1v24a1 1 0 0 0 1 1h25a1 1 0 0 0 1-1V39a1 1 0 0 0-1-1zm-38 9.5c0 .827-.673 1.5-1.5 1.5s-1.5-.673-1.5-1.5V46h3v1.5zM2 46h3v1.5c0 .827-.673 1.5-1.5 1.5S2 48.327 2 47.5V46zm5-2v-4h3v4H7zm0 2h3v1.5c0 .827-.673 1.5-1.5 1.5S7 48.327 7 47.5V46zm5 0h3v1.5c0 .827-.673 1.5-1.5 1.5s-1.5-.673-1.5-1.5V46zm5 0h3v1.5c0 .827-.673 1.5-1.5 1.5s-1.5-.673-1.5-1.5V46zm0-2v-4h3v4h-3zm-2 0h-3v-4h3v4zM2 40h3v4H2v-4zm4 22v-6a1.001 1.001 0 0 1 2 0v6H6zm4 0v-6c0-1.654-1.346-3-3-3s-3 1.346-3 3v6H2V50.649c.456.218.961.351 1.5.351.98 0 1.864-.407 2.5-1.058a3.485 3.485 0 0 0 5 0 3.485 3.485 0 0 0 5 0 3.485 3.485 0 0 0 5 0A3.485 3.485 0 0 0 23.5 51c.539 0 1.044-.133 1.5-.351V62H10zm15-18h-3v-4h3v4zM20 8h3v1.5c0 .827-.673 1.5-1.5 1.5S20 10.327 20 9.5V8zm15-2V2h3v4h-3zm-2 0h-3V2h3v4zm-5 0h-3V2h3v4zm-3 2h3v1.5c0 .827-.673 1.5-1.5 1.5S25 10.327 25 9.5V8zm5 0h3v1.5c0 .827-.673 1.5-1.5 1.5S30 10.327 30 9.5V8zm5 0h3v1.5c0 .827-.673 1.5-1.5 1.5S35 10.327 35 9.5V8zm5 0h3v1.5c0 .827-.673 1.5-1.5 1.5S40 10.327 40 9.5V8zm3-2h-3V2h3v4zM20 2h3v4h-3V2zm0 10.649c.456.218.961.351 1.5.351.98 0 1.864-.407 2.5-1.058a3.485 3.485 0 0 0 5 0 3.485 3.485 0 0 0 5 0 3.485 3.485 0 0 0 5 0A3.485 3.485 0 0 0 41.5 13c.539 0 1.044-.133 1.5-.351V24H28v-6c0-1.654-1.346-3-3-3s-3 1.346-3 3v6h-2V12.649zM24 24v-6a1.001 1.001 0 0 1 2 0v6h-2zm38 20h-3v-4h3v4zm0 3.5c0 .827-.673 1.5-1.5 1.5s-1.5-.673-1.5-1.5V46h3v1.5zM39 46h3v1.5c0 .827-.673 1.5-1.5 1.5s-1.5-.673-1.5-1.5V46zm13-6v4h-3v-4h3zm2 4v-4h3v4h-3zm-7 0h-3v-4h3v4zm-3 2h3v1.5c0 .827-.673 1.5-1.5 1.5s-1.5-.673-1.5-1.5V46zm5 0h3v1.5c0 .827-.673 1.5-1.5 1.5s-1.5-.673-1.5-1.5V46zm5 0h3v1.5c0 .827-.673 1.5-1.5 1.5s-1.5-.673-1.5-1.5V46zm-15-6h3v4h-3v-4zm4 22v-6a1.001 1.001 0 0 1 2 0v6h-2zm4 0v-6c0-1.654-1.346-3-3-3s-3 1.346-3 3v6h-2V50.649c.456.218.961.351 1.5.351.98 0 1.864-.407 2.5-1.058a3.485 3.485 0 0 0 5 0 3.485 3.485 0 0 0 5 0 3.485 3.485 0 0 0 5 0A3.485 3.485 0 0 0 60.5 51c.539 0 1.044-.133 1.5-.351V62H47z"/>
        <path d="M59 53h-9a1 1 0 0 0-1 1v5a1 1 0 0 0 1 1h9a1 1 0 0 0 1-1v-5a1 1 0 0 0-1-1zm-1 5h-7v-3h7v3zM31 22h9a1 1 0 0 0 1-1v-5a1 1 0 0 0-1-1h-9a1 1 0 0 0-1 1v5a1 1 0 0 0 1 1zm1-5h7v3h-7v-3z"/>
    </g>
</svg>
