<?xml version="1.0" encoding="UTF-8"?>
<svg width="32px" height="32px" viewBox="0 0 32 32" version="1.1" xmlns="http://www.w3.org/2000/svg" xmlns:xlink="http://www.w3.org/1999/xlink">
    <!-- Generator: Sketch 58 (84663) - https://sketch.com -->
    <title>4_focus</title>
    <desc>Created with Sketch.</desc>
    <g id="Page-3" stroke="none" stroke-width="1" fill="none" fill-rule="evenodd">
        <g id="Главная_страница" transform="translate(-169.000000, -5112.000000)">
            <g id="Group-18" transform="translate(1.000000, 4662.000000)">
                <g id="Group-47" transform="translate(150.000000, 128.000000)">
                    <g id="Group-12-Copy-3" transform="translate(0.000000, 304.000000)">
                        <g id="Group-75">
                            <g id="4_focus" transform="translate(18.000000, 18.000000)">
                                <rect id="Rectangle" stroke="#979797" fill="#D8D8D8" opacity="0" x="0.5" y="0.5" width="31" height="31"></rect>
                                <g id="seal" transform="translate(0.000000, -0.000000)" fill="#d83139" fill-rule="nonzero">
                                    <path d="M21.8338065,12.8645161 L21.472,11.8978065 C21.1483871,12.0190968 20.820129,12.1300645 20.496,12.228129 L20.7943226,13.216 C21.1396129,13.1117419 21.4895484,12.9935484 21.8338065,12.8645161 L21.8338065,12.8645161 Z" id="Path"></path>
                                    <path d="M18.5806452,15.1122581 L18.5806452,13.7249032 C18.9636129,13.6634839 19.348129,13.588129 19.7295484,13.5003871 L19.4967742,12.4944516 C18.9992258,12.6100645 18.4949677,12.7009032 17.9979355,12.7664516 L17.5483871,12.8258065 L17.5483871,15.1127742 C17.5483871,15.2510968 17.5514839,15.3889032 17.5587097,15.5261935 L18.5899355,15.4735484 C18.5837419,15.3532903 18.5806452,15.2335484 18.5806452,15.1122581 L18.5806452,15.1122581 Z" id="Path"></path>
                                    <path d="M9.29032258,6.19354839 C7.58245161,6.19354839 6.19354839,7.58245161 6.19354839,9.29032258 C6.19354839,10.9981935 7.58245161,12.3870968 9.29032258,12.3870968 C10.9981935,12.3870968 12.3870968,10.9981935 12.3870968,9.29032258 C12.3870968,7.58245161 10.9981935,6.19354839 9.29032258,6.19354839 Z M9.29032258,11.3548387 C8.15174194,11.3548387 7.22580645,10.4289032 7.22580645,9.29032258 C7.22580645,8.15174194 8.15174194,7.22580645 9.29032258,7.22580645 C10.4289032,7.22580645 11.3548387,8.15174194 11.3548387,9.29032258 C11.3548387,10.4289032 10.4289032,11.3548387 9.29032258,11.3548387 Z" id="Shape"></path>
                                    <path d="M22.9563871,9.18090323 L22.7101935,9.04722581 L22.464,9.18090323 C20.4882581,10.2513548 18.251871,10.8247742 15.9969032,10.8381935 L15.483871,10.8412903 L15.483871,15.1122581 C15.483871,19.5907097 18.3169032,23.6258065 22.5336774,25.1525161 L22.7096774,25.216 L22.8856774,25.1525161 C27.1024516,23.6258065 29.9354839,19.5907097 29.9354839,15.1122581 L29.9354839,10.8412903 L29.4224516,10.8381935 C27.1690323,10.8247742 24.9331613,10.2513548 22.9563871,9.18090323 L22.9563871,9.18090323 Z M28.9032258,15.1122581 C28.9032258,19.0952258 26.4221935,22.6900645 22.7096774,24.116129 C18.9971613,22.6895484 16.516129,19.0947097 16.516129,15.1122581 L16.516129,11.8580645 C18.6725161,11.7698065 20.7984516,11.2072258 22.7101935,10.2183226 C24.6224516,11.2072258 26.747871,11.7698065 28.9032258,11.8580645 L28.9032258,15.1122581 Z" id="Shape"></path>
                                    <path d="M20.6451613,15.7863226 L18.3669677,18.0645161 L21.6774194,21.3749677 L28.0846452,14.9677419 L25.8064516,12.6895484 L21.6774194,16.8185806 L20.6451613,15.7863226 Z M26.6250323,14.9677419 L21.6774194,19.9153548 L19.8265806,18.0645161 L20.6451613,17.2459355 L21.6774194,18.2781935 L25.8064516,14.1491613 L26.6250323,14.9677419 Z" id="Shape"></path>
                                    <path d="M32,8.77419355 L29.5076129,8.77419355 C27.188129,8.77419355 24.9424516,8.09445161 22.9930323,6.79432258 L22.6900645,6.61832258 L22.4056774,6.80774194 C21.2304516,7.59174194 19.9365161,8.14709677 18.5806452,8.464 L18.5806452,7.33316129 L17.2206452,7.01316129 C17.0492903,6.41496774 16.8103226,5.83896774 16.507871,5.29341935 L17.243871,4.10477419 L14.475871,1.33677419 L13.2872258,2.07277419 C12.7416774,1.77032258 12.1656774,1.53135484 11.5674839,1.36 L11.2474839,0 L7.33316129,0 L7.01316129,1.36 C6.41496774,1.53135484 5.83896774,1.77032258 5.29341935,2.07277419 L4.10477419,1.33677419 L1.33677419,4.10477419 L2.07277419,5.29341935 C1.77032258,5.83896774 1.53135484,6.41496774 1.36,7.01316129 L0,7.33316129 L0,11.2474839 L1.36,11.5674839 C1.53135484,12.1656774 1.77032258,12.7416774 2.07277419,13.2872258 L1.33677419,14.475871 L4.10477419,17.243871 L5.29341935,16.507871 C5.83896774,16.8103226 6.41496774,17.0492903 7.01316129,17.2206452 L7.33316129,18.5806452 L11.2474839,18.5806452 L11.5674839,17.2206452 C12.1656774,17.0492903 12.7416774,16.8103226 13.2872258,16.507871 L13.5251613,16.6549677 C13.8018065,18.8861935 14.6596129,20.9790968 15.9741935,22.7349677 L14.2379355,29.1014194 L16.7865806,28.464 L18.7153548,31.6789677 L20.4459355,26.4872258 C21.1189677,26.8273548 21.8245161,27.1153548 22.564129,27.3331613 L22.7096774,27.3765161 L22.8552258,27.3336774 C23.5948387,27.115871 24.3003871,26.827871 24.9734194,26.4877419 L26.704,31.6794839 L28.6327742,28.4645161 L31.1814194,29.1019355 L29.4451613,22.7354839 C31.0590968,20.5790968 32,17.9189677 32,15.1122581 L32,8.77419355 Z M13.2985806,15.3011613 L13.0286452,15.4652903 C12.4015484,15.8451613 11.7243871,16.1264516 11.0141935,16.299871 L10.7065806,16.3752258 L10.4299355,17.5483871 L8.15070968,17.5483871 L7.87458065,16.3752258 L7.56696774,16.299871 C6.85677419,16.1264516 6.1796129,15.8451613 5.55251613,15.4652903 L5.28258065,15.3011613 L4.25754839,15.9354839 L2.64567742,14.3236129 L3.28,13.2985806 L3.11587097,13.0286452 C2.736,12.4015484 2.45470968,11.7243871 2.28129032,11.0141935 L2.20593548,10.7065806 L1.03225806,10.4299355 L1.03225806,8.15070968 L2.20541935,7.87458065 L2.28077419,7.56696774 C2.45419355,6.85677419 2.73548387,6.1796129 3.11535484,5.55251613 L3.27948387,5.28258065 L2.64516129,4.25703226 L4.25703226,2.64516129 L5.28206452,3.27948387 L5.552,3.11535484 C6.17909677,2.73548387 6.85625806,2.45419355 7.56645161,2.28077419 L7.87406452,2.20541935 L8.15070968,1.03225806 L10.4299355,1.03225806 L10.7060645,2.20541935 L11.0136774,2.28077419 C11.723871,2.45419355 12.4010323,2.73548387 13.028129,3.11535484 L13.2980645,3.27948387 L14.3230968,2.64516129 L15.9349677,4.25703226 L15.3006452,5.28206452 L15.4647742,5.552 C15.8446452,6.17909677 16.1259355,6.85625806 16.2993548,7.56645161 L16.3747097,7.87406452 L17.5483871,8.15070968 L17.5483871,8.65754839 C17.0090323,8.73290323 16.4629677,8.77419355 15.9117419,8.77419355 L15.4575484,8.77419355 C15.1938065,5.6 12.5316129,3.09677419 9.29032258,3.09677419 C5.87509677,3.09677419 3.09677419,5.87509677 3.09677419,9.29032258 C3.09677419,12.7055484 5.87509677,15.483871 9.29032258,15.483871 C10.8283871,15.483871 12.2941935,14.9063226 13.4193548,13.9003871 L13.4193548,15.1127742 C13.4193548,15.2036129 13.4286452,15.2929032 13.4307097,15.3832258 L13.2985806,15.3011613 Z M13.4193548,8.77419355 L13.4193548,12.3762581 C12.4454194,13.675871 10.9166452,14.4516129 9.29032258,14.4516129 C6.4443871,14.4516129 4.12903226,12.1362581 4.12903226,9.29032258 C4.12903226,6.4443871 6.4443871,4.12903226 9.29032258,4.12903226 C11.9618065,4.12903226 14.1656774,6.16980645 14.4252903,8.77419355 L13.4193548,8.77419355 Z M18.4459355,29.2237419 L17.2779355,27.2774194 L15.6975484,27.6722581 L16.7809032,23.6990968 C17.5819355,24.5770323 18.5047742,25.3450323 19.5287742,25.9747097 L18.4459355,29.2237419 Z M29.7218065,27.6722581 L28.1414194,27.2774194 L26.9734194,29.2237419 L25.8905806,25.9747097 C26.9145806,25.3450323 27.8374194,24.5770323 28.6384516,23.6990968 L29.7218065,27.6722581 Z M30.9677419,15.1122581 C30.9677419,20.2188387 27.579871,24.7974194 22.7096774,26.299871 C17.8394839,24.7974194 14.4516129,20.2188387 14.4516129,15.1122581 L14.4516129,9.80645161 L15.9117419,9.80645161 C18.3236129,9.80645161 20.6616774,9.13083871 22.7091613,7.84103226 C24.7468387,9.12825806 27.0905806,9.80645161 29.5076129,9.80645161 L30.9677419,9.80645161 L30.9677419,15.1122581 Z" id="Shape"></path>
                                </g>
                            </g>
                        </g>
                    </g>
                </g>
            </g>
        </g>
    </g>
</svg>