<?xml version="1.0" encoding="UTF-8"?>
<svg width="28px" height="32px" viewBox="0 0 28 32" version="1.1" xmlns="http://www.w3.org/2000/svg" xmlns:xlink="http://www.w3.org/1999/xlink">
    <!-- Generator: Sketch 58 (84663) - https://sketch.com -->
    <title>5_focus</title>
    <desc>Created with Sketch.</desc>
    <g id="Page-3" stroke="none" stroke-width="1" fill="none" fill-rule="evenodd">
        <g id="Главная_страница" transform="translate(-561.000000, -5112.000000)">
            <g id="Group-18" transform="translate(1.000000, 4662.000000)">
                <g id="Group-47" transform="translate(150.000000, 128.000000)">
                    <g id="Group-12-Copy-4" transform="translate(390.000000, 304.000000)">
                        <g id="Group-76">
                            <g id="5_focus" transform="translate(18.000000, 18.000000)">
                                <rect id="Rectangle" stroke="#979797" fill="#D8D8D8" opacity="0" x="0.5" y="0.5" width="31" height="31"></rect>
                                <g id="profits" transform="translate(2.000000, 0.000000)" fill="#FFFFFF" fill-rule="nonzero">
                                    <path d="M24.6408404,20.2537374 L24.6408404,8.80484848 C24.6408404,8.44929293 24.3499313,8.20363636 23.9943758,8.20363636 L21.4925576,8.20363636 C21.137002,8.20363636 20.826699,8.44929293 20.826699,8.80484848 L20.826699,19.1353535 C20.4129616,19.1482828 19.9992242,19.2 19.5984162,19.2969697 L19.5984162,12.1793939 C19.5984162,11.8238384 19.2945778,11.5652525 18.9390222,11.5652525 L16.437204,11.5652525 C16.0816485,11.5652525 15.7842747,11.8173737 15.7842747,12.1793939 L15.7842747,21.8311111 C15.0149818,22.9107071 14.6012444,24.210101 14.6076345,25.5418182 C14.6076345,29.0844444 17.4780121,31.9547475 21.0141737,31.9547475 C24.5568,31.9547475 27.427103,29.0844444 27.427103,25.5482828 C27.427103,23.4278788 26.3862949,21.449697 24.6408404,20.2537374 Z M22.1196283,9.49656566 L23.3479111,9.49656566 L23.3479111,19.5684848 C22.9535677,19.4133333 22.5398303,19.2969697 22.1196283,19.2323232 L22.1196283,9.49656566 Z M17.077204,12.8581818 L18.3054869,12.8581818 L18.3054869,19.7430303 C17.8723556,19.9434343 17.4586182,20.1890909 17.077204,20.48 L17.077204,12.8581818 Z M25.4230626,28.1470707 C24.4986182,29.7050505 22.8242747,30.6553535 21.0206384,30.6553535 C18.1955879,30.6553535 15.907103,28.360404 15.907103,25.5418182 C15.907103,23.4731313 17.1547798,21.6048485 19.0683152,20.8161616 C19.1458909,20.8032323 19.217002,20.7709091 19.2816485,20.7321212 C19.8376081,20.5252525 20.4323556,20.4218182 21.027103,20.4218182 C21.1628606,20.4218182 21.2921535,20.4282828 21.4279111,20.4412121 L21.4343758,20.4412121 C22.2101333,20.4993939 22.966497,20.7385859 23.6323556,21.1393939 C26.062998,22.5810101 26.8646788,25.7163636 25.4230626,28.1470707 Z" id="Shape"></path>
                                    <path d="M21.027103,25.0181818 C20.5745778,25.0181818 20.2125576,24.6561616 20.2125576,24.2036364 C20.2125576,23.7511111 20.5681131,23.3890909 21.0206384,23.3826263 C21.4731636,23.3826263 21.8351838,23.7511111 21.8351838,24.1971717 C21.8351838,24.5527273 22.1260929,24.8436364 22.4816485,24.8436364 C22.8436687,24.8436364 23.1345778,24.5591919 23.1410424,24.1971717 C23.1410424,23.3309091 22.6109414,22.5486869 21.8028606,22.2319192 L21.8028606,21.6953535 C21.8028606,21.339798 21.5119515,21.0488889 21.156396,21.0488889 C20.8008404,21.0488889 20.5099313,21.339798 20.5099313,21.6953535 L20.5099313,22.1608081 C19.3850828,22.4517172 18.7062949,23.6024242 18.997204,24.7272727 C19.2299313,25.6581818 20.0638707,26.3046465 21.0206384,26.3046465 C21.466699,26.3046465 21.8287192,26.6731313 21.8287192,27.1191919 C21.8287192,27.5652525 21.4602343,27.9272727 21.0141737,27.9272727 C20.5681131,27.9272727 20.2060929,27.5587879 20.2060929,27.1127273 C20.2060929,26.7571717 19.9151838,26.4662626 19.5596283,26.4662626 C19.2040727,26.4662626 18.9196283,26.7507071 18.9260929,27.1062626 L18.9260929,27.1127273 C18.9325576,28.0694949 19.5790222,28.909899 20.5034667,29.1490909 L20.5034667,29.44 C20.5034667,29.7955556 20.7943758,30.0864646 21.1499313,30.0864646 C21.5054869,30.0864646 21.796396,29.7955556 21.796396,29.44 L21.796396,29.0844444 C22.8824566,28.6577778 23.4125576,27.4359596 22.9923556,26.3563636 C22.6755879,25.5482828 21.8933657,25.0181818 21.027103,25.0181818 Z" id="Path"></path>
                                    <path d="M8.80245657,16.7369697 L6.28124444,16.7369697 C5.92568889,16.7369697 5.6347798,17.0278788 5.6347798,17.3834343 L5.6347798,27.5329293 C5.6347798,27.8884848 5.92568889,28.1793939 6.28124444,28.1793939 L8.80245657,28.1793939 C9.15801212,28.1793939 9.44892121,27.8884848 9.44892121,27.5329293 L9.44892121,17.3834343 C9.44892121,17.0278788 9.15801212,16.7369697 8.80245657,16.7369697 Z M8.15599192,26.9511111 L6.92770909,26.9511111 L6.92770909,18.029899 L8.15599192,18.029899 L8.15599192,26.9511111 Z" id="Shape"></path>
                                    <path d="M13.9095273,15.250101 L11.3883152,15.250101 C11.0327596,15.250101 10.7418505,15.5410101 10.7418505,15.8965657 L10.7418505,27.5975758 C10.7418505,27.9531313 11.0327596,28.2440404 11.3883152,28.2440404 L13.9095273,28.2440404 C14.2650828,28.2440404 14.5559919,27.9531313 14.5559919,27.5975758 L14.5559919,15.8965657 C14.5559919,15.5410101 14.2650828,15.250101 13.9095273,15.250101 Z M13.2630626,26.9511111 L12.0347798,26.9511111 L12.0347798,16.5430303 L13.2630626,16.5430303 L13.2630626,26.9511111 Z" id="Shape"></path>
                                    <path d="M3.69538586,22.2965657 L1.17417374,22.2965657 C0.818618182,22.2965657 0.527709091,22.5874747 0.527709091,22.9430303 L0.527709091,27.5329293 C0.527709091,27.8884848 0.818618182,28.1793939 1.17417374,28.1793939 L3.69538586,28.1793939 C4.05094141,28.1793939 4.34185051,27.8884848 4.34185051,27.5329293 L4.34185051,22.9430303 C4.34185051,22.5874747 4.05094141,22.2965657 3.69538586,22.2965657 Z M3.04892121,26.9511111 L1.82063838,26.9511111 L1.82063838,23.5894949 L3.04892121,23.5894949 L3.04892121,26.9511111 Z" id="Shape"></path>
                                    <path d="M24.5438707,0 L20.1220525,0.00646464646 C19.766497,0 19.4755879,0.290909091 19.4691232,0.646464646 C19.4626586,1.0020202 19.7535677,1.29292929 20.1091232,1.29939394 C20.1155879,1.29939394 20.1155879,1.29939394 20.1220525,1.29939394 L22.9858909,1.29292929 L15.9717495,8.28121212 L13.5216485,5.85050505 C13.3988202,5.73414141 13.2307394,5.6759596 13.0626586,5.68242424 C12.8945778,5.6759596 12.726497,5.73414141 12.6036687,5.85050505 L0.191547475,18.2626263 C-0.0605737374,18.5147475 -0.0605737374,18.9220202 0.191547475,19.1676768 C0.314375758,19.2905051 0.475991919,19.3551515 0.650537374,19.3551515 C0.825082828,19.3551515 0.98669899,19.2905051 1.10952727,19.1676768 L13.0691232,7.20808081 L15.5192242,9.67757576 C15.6355879,9.80686869 15.8036687,9.8779798 15.9782141,9.88444444 C16.1527596,9.8779798 16.3143758,9.80040404 16.437204,9.67757576 L23.8974061,2.21090909 L23.8909414,5.08767677 C23.8909414,5.44969697 24.1753859,5.74060606 24.5374061,5.75353535 C24.8994263,5.74707071 25.1838707,5.44969697 25.1838707,5.08767677 L25.1903354,0.652929293 C25.1903354,0.297373737 24.8994263,0 24.5438707,0 Z" id="Path"></path>
                                </g>
                            </g>
                        </g>
                    </g>
                </g>
            </g>
        </g>
    </g>
</svg>