<svg xmlns="http://www.w3.org/2000/svg" width="60" height="64" viewBox="0 0 60 64">
    <g fill="#D83139" fill-rule="nonzero">
        <path d="M24.918 42.716c0 6.535 5.321 11.852 11.862 11.852 6.539 0 11.858-5.317 11.858-11.852 0-6.534-5.32-11.85-11.858-11.85-6.541 0-11.862 5.316-11.862 11.85zm21.2 0c0 5.145-4.19 9.33-9.338 9.33-5.15 0-9.341-4.185-9.341-9.33 0-5.144 4.19-9.33 9.34-9.33 5.15 0 9.338 4.186 9.338 9.33z"/>
        <path d="M45.141 9.159h.255c.665-.001 1.067-.001 1.272.05.173.043.412.181.937.489.152.089.323.19.519.302l4.107 2.366c.76.438 1.563.658 2.353.658.738 0 1.464-.192 2.131-.577a4.899 4.899 0 0 0 2.41-4.175c0-1.591-.843-2.99-2.313-3.839l-4.489-2.587C50.016.321 47.326 0 45.471 0H30.04a4.588 4.588 0 0 0-4.585 4.58 4.588 4.588 0 0 0 4.586 4.579h1.49v5.303h-5.503c-1.549 0-2.81 1.26-2.81 2.809v5.458c0 4.882-.033 4.995-1.78 6.026-.988.58-1.803 1.2-2.469 1.88a5.746 5.746 0 0 0-1.378-.496v-5.147a3.738 3.738 0 0 0-3.734-3.733H9.973a3.738 3.738 0 0 0-3.735 3.733v5.147a5.813 5.813 0 0 0-2.908 1.622c-1.068 1.091-1.706 2.557-1.797 4.13L.183 59.616c-.005.093-.012.189-.019.286-.066.98-.157 2.322.72 3.26.518.556 1.25.837 2.174.837h17.716l31.033-.032c3.004-.005 5.448-2.448 5.448-5.447V40.127c0-5.045-.357-8.562-5.133-11.372-1.752-1.032-1.786-1.144-1.786-6.026V17.27a2.812 2.812 0 0 0-2.81-2.809h-5.502V9.16h3.117zm-17.163-4.58c0-1.134.926-2.058 2.064-2.058H45.47c1.516 0 3.699.251 5.489 1.446.023.015.046.03.07.043l4.522 2.607c.698.403 1.052.96 1.052 1.656 0 .78-.472 1.6-1.15 1.99-.604.35-1.264.322-1.964-.082l-4.107-2.365-.503-.293c-1.394-.818-1.635-.886-3.412-.886H30.042a2.063 2.063 0 0 1-2.064-2.057zM3.635 43.326h16.56l.427 7.496H3.209l.426-7.496zM9.973 23.78h3.885c.669 0 1.213.544 1.213 1.212v5.009H8.76v-5.009c0-.668.545-1.212 1.214-1.212zm-2.474 8.742h8.833c.76 0 1.458.255 2.025.695.033.03.067.059.104.086l.015.01c.746.633 1.24 1.6 1.304 2.72l.272 4.771H3.779l.271-4.77c.116-2.002 1.598-3.512 3.449-3.512zM2.723 61.435c-.121-.211-.069-.985-.043-1.361l.02-.313.365-6.419h17.7l.366 6.42c.006.1.012.202.02.306.025.378.077 1.156-.045 1.367a.953.953 0 0 1-.333.044H3.058a.961.961 0 0 1-.335-.044zM47.815 17.27v4.198h-5.41a1.26 1.26 0 1 0 0 2.521h5.412c.023 3.941.273 5.318 3.026 6.939 3.539 2.082 3.89 4.289 3.89 9.2V58.52a2.935 2.935 0 0 1-2.93 2.926l-28.135.029c.066-.553.03-1.107-.002-1.578l-.018-.28-1.35-23.729a6.455 6.455 0 0 0-1.371-3.642c.482-.462 1.074-.899 1.79-1.32 2.75-1.62 3-2.997 3.022-6.938h4.292a1.26 1.26 0 1 0 0-2.52h-4.29V17.27c0-.153.135-.288.288-.288h21.498c.153 0 .288.134.288.287zm-8.312-2.808h-5.45V9.159h5.45v5.303z"/>
        <path d="M36.78 23.99h.021a1.26 1.26 0 1 0 0-2.522h-.021a1.26 1.26 0 1 0 0 2.521z"/>
    </g>
</svg>
