<?xml version="1.0" encoding="UTF-8"?>
<svg width="32px" height="32px" viewBox="0 0 32 32" version="1.1" xmlns="http://www.w3.org/2000/svg" xmlns:xlink="http://www.w3.org/1999/xlink">
    <!-- Generator: Sketch 58 (84663) - https://sketch.com -->
    <title>6_focus</title>
    <desc>Created with Sketch.</desc>
    <g id="Page-3" stroke="none" stroke-width="1" fill="none" fill-rule="evenodd">
        <g id="Главная_страница" transform="translate(-949.000000, -5112.000000)">
            <g id="Group-18" transform="translate(1.000000, 4662.000000)">
                <g id="Group-47" transform="translate(150.000000, 128.000000)">
                    <g id="Group-12-Copy-5" transform="translate(780.000000, 304.000000)">
                        <g id="Group-77">
                            <g id="6_focus" transform="translate(18.000000, 18.000000)">
                                <rect id="Rectangle" stroke="#979797" fill="#D8D8D8" opacity="0" x="0.5" y="0.5" width="31" height="31"></rect>
                                <g id="management" fill="#d83139" fill-rule="nonzero">
                                    <path d="M31.3549805,13.234375 L27.5014649,11.9682617 C27.3522949,11.5439453 27.1784668,11.1257324 26.9814453,10.7172851 L28.7709961,7.13842775 C28.951416,6.77734375 28.8806152,6.34155275 28.5952149,6.05615237 L25.9438476,3.40478513 C25.6584473,3.11938475 25.2224121,3.048584 24.8615723,3.22900388 L21.2827149,5.01855469 C20.8742676,4.82153319 20.4560547,4.64770506 20.0317383,4.49853513 L18.7658691,0.644775375 C18.6391601,0.26000975 18.2800293,0 17.875,0 L14.125,0 C13.7199707,0 13.3605957,0.26000975 13.234375,0.6450195 L11.9682617,4.49853513 C11.5439453,4.64770506 11.1257324,4.82153319 10.7172851,5.01855469 L7.13842775,3.22900388 C6.77734375,3.048584 6.34155275,3.11938475 6.0563965,3.40478513 L3.40478513,6.05615237 C3.11938475,6.34155275 3.048584,6.77758788 3.22900388,7.13842775 L5.01855469,10.7172851 C4.82153319,11.1257324 4.64770506,11.5439453 4.49853513,11.9682617 L0.6450195,13.2341309 C0.26000975,13.3605957 0,13.7199707 0,14.125 L0,17.875 C0,18.2800293 0.26000975,18.6391601 0.644775375,18.765625 L4.49853513,20.0317383 C4.64770506,20.4560547 4.82153319,20.8742676 5.01855469,21.2827149 L3.22900388,24.8615723 C3.048584,25.2224121 3.11938475,25.6584473 3.40478513,25.9436035 L6.05615237,28.5952149 C6.34155275,28.8806153 6.77734375,28.951416 7.13842775,28.7709961 L10.7172851,26.9814453 C11.1257324,27.1784668 11.5439453,27.3522949 11.9682617,27.5014649 L13.234375,31.3549805 C13.3605957,31.7399903 13.7199707,32 14.125,32 L17.875,32 C18.2800293,32 18.6391601,31.7399903 18.765625,31.3552246 L20.0317383,27.5014649 C20.4560547,27.3522949 20.8742676,27.1784668 21.2827149,26.9814453 L24.8615723,28.7709961 C25.2224121,28.951416 25.6584473,28.8806152 25.9436035,28.5952149 L28.5952149,25.9438476 C28.8806153,25.6584472 28.951416,25.2224121 28.7709961,24.8615722 L26.9814453,21.2827149 C27.1784668,20.8742676 27.3522949,20.4560547 27.5012207,20.0317382 L31.3549805,18.7658691 C31.7399903,18.6391601 32,18.2800293 32,17.875 L32,14.125 C32,13.7199707 31.7399903,13.3605957 31.3549805,13.234375 L31.3549805,13.234375 Z M30.125,17.1962891 L26.4660644,18.3981934 C26.1765137,18.4934082 25.9511719,18.7233887 25.8620606,19.0151367 C25.6713868,19.6396484 25.4165039,20.253418 25.1044922,20.8391113 C24.9616699,21.1071777 24.9575195,21.4277344 25.0935059,21.6992187 L26.7917481,25.0957031 L25.0957031,26.7917481 L21.6989746,25.0935059 C21.4274902,24.9577637 21.1069336,24.9619141 20.8391113,25.1044922 C20.253418,25.4165039 19.6396484,25.6713867 19.0151367,25.8620606 C18.7233887,25.9511719 18.4931641,26.1765137 18.3979492,26.4663086 L17.1962891,30.125 L14.8039551,30.125 L13.6020508,26.4660644 C13.5068359,26.1762695 13.2766113,25.9511719 12.9848633,25.8620606 C12.3603516,25.6713867 11.746582,25.4165039 11.1608887,25.1044922 C10.8928223,24.9616699 10.5722656,24.9575195 10.3010254,25.0935059 L6.90429688,26.7917481 L5.20825194,25.0957031 L6.90649413,21.6989746 C7.04223631,21.4274902 7.03808594,21.1071777 6.89550781,20.8391113 C6.58349612,20.2531738 6.32861325,19.6394043 6.13793944,19.0151367 C6.04882812,18.7233887 5.8237305,18.4931641 5.53393556,18.3979492 L1.875,17.1962891 L1.875,14.8039551 L5.53393556,13.6020507 C5.8237305,13.5068359 6.04882812,13.2766113 6.13793944,12.9848632 C6.32861325,12.3605957 6.58349612,11.7468262 6.89550781,11.1608887 C7.03833006,10.8928222 7.0424805,10.5722656 6.90673825,10.3007812 L5.20849612,6.90429687 L6.90429688,5.20825194 L10.3010254,6.90649412 C10.5725098,7.04223631 10.8930664,7.03808594 11.1608887,6.89550781 C11.7468262,6.58349612 12.3605957,6.32861325 12.9851074,6.13793944 C13.2768555,6.04882812 13.5068359,5.82348631 13.6020508,5.53369137 L14.8037109,1.875 L17.1960449,1.875 L18.3979492,5.53393556 C18.4931641,5.82348631 18.7233887,6.04882812 19.0151367,6.13793944 C19.6394043,6.32861325 20.2531738,6.58349612 20.8391113,6.89550781 C21.1071777,7.03808594 21.4274902,7.04223631 21.6989746,6.90649412 L25.0957031,5.20825194 L26.7917481,6.90429687 L25.0935059,10.3010254 C24.9577637,10.5725097 24.9619141,10.8928222 25.1044922,11.1608887 C25.4165039,11.746582 25.6713867,12.3603516 25.8620606,12.9848632 C25.9511719,13.2766113 26.1762695,13.5068359 26.4660644,13.6020507 L30.125,14.8037109 L30.125,17.1962891 Z" id="Shape"></path>
                                    <path d="M16,7.5625 C11.3317871,7.5625 7.5625,11.3637695 7.5625,16 C7.5625,20.6342774 11.3300781,24.4375 16,24.4375 C20.6682129,24.4375 24.4375,20.6362305 24.4375,16 C24.4375,11.3657226 20.6699219,7.5625 16,7.5625 Z M9.7717285,18.0683594 C9.55517575,17.4179688 9.4375,16.7224121 9.4375,16 C9.4375,15.2775879 9.55517575,14.5820312 9.7717285,13.9316406 C10.2480469,14.1533203 10.7893066,14.3459473 11.3833008,14.5063476 C11.3369141,14.9948731 11.3125,15.4941406 11.3125,16 C11.3125,16.5058594 11.3369141,17.0051269 11.3833008,17.4936524 C10.7893066,17.6540527 10.2480469,17.8466797 9.7717285,18.0683594 Z M10.6130371,19.7434082 C10.9279785,19.6003418 11.2873535,19.4711914 11.6821289,19.3574219 C11.8596191,20.1247559 12.0986328,20.840332 12.3945312,21.4804688 C11.6962891,21.0195312 11.0910644,20.4289551 10.6130371,19.7434082 Z M11.6821289,12.6425781 C11.2873535,12.5288086 10.9279785,12.3996582 10.6130371,12.2565918 C11.0910644,11.5710449 11.6962891,10.9804688 12.3945312,10.5195313 C12.0986328,11.159668 11.8596191,11.8752441 11.6821289,12.6425781 Z M15.0625,22.1245118 C14.4379883,21.5471191 13.8652344,20.4313965 13.5212402,18.9785156 C14.0141601,18.9104004 14.5310059,18.8620606 15.0625,18.8356934 L15.0625,22.1245118 Z M15.0625,16.9582519 C14.4294434,16.9858399 13.8166504,17.0412598 13.232666,17.1225586 C13.2033691,16.7597656 13.1875,16.3850098 13.1875,16 C13.1875,15.6149903 13.2033691,15.2402344 13.232666,14.8774414 C13.8166504,14.9589844 14.4294434,15.0141601 15.0625,15.0417481 L15.0625,16.9582519 Z M15.0625,13.1643066 C14.5307617,13.1379394 14.013916,13.0895996 13.5212402,13.0214844 C13.8652344,11.5686035 14.4379883,10.4528809 15.0625,9.87548825 L15.0625,13.1643066 Z M21.3869629,12.2565918 C21.0720215,12.3996582 20.7126465,12.5288086 20.3178711,12.6425781 C20.1403809,11.8752441 19.9013672,11.159668 19.6054688,10.5195313 C20.3037109,10.9804688 20.9089356,11.5710449 21.3869629,12.2565918 Z M16.9375,9.87548825 C17.5620117,10.4528809 18.1347656,11.5686035 18.4787598,13.0214844 C17.9858399,13.0895996 17.4689941,13.1379394 16.9375,13.1643066 L16.9375,9.87548825 Z M16.9375,22.1245118 L16.9375,18.8356934 C17.4692383,18.8620606 17.986084,18.9104004 18.4787598,18.9785156 C18.1347656,20.4313965 17.5620118,21.5471191 16.9375,22.1245118 Z M18.767334,17.1225586 C18.1833496,17.0410156 17.5705566,16.9858399 16.9375,16.9582519 L16.9375,15.0417481 C17.5705566,15.0141601 18.1833496,14.9587403 18.767334,14.8774414 C18.7966309,15.2402344 18.8125,15.6149903 18.8125,16 C18.8125,16.3850098 18.7966309,16.7597656 18.767334,17.1225586 L18.767334,17.1225586 Z M19.6057129,21.4804688 C19.9013672,20.840332 20.1403809,20.1247559 20.3178711,19.3574219 C20.7126465,19.4711914 21.0722656,19.6003418 21.3869629,19.7434082 C20.9089356,20.4289551 20.3037109,21.0195312 19.6057129,21.4804688 L19.6057129,21.4804688 Z M22.2282715,18.0683594 C21.7519531,17.8466797 21.2106934,17.6540528 20.6166992,17.4936524 C20.6630859,17.0051269 20.6875,16.5058594 20.6875,16 C20.6875,15.4941406 20.6630859,14.9948731 20.6166992,14.5063476 C21.2106934,14.3459473 21.7521972,14.1533203 22.2282715,13.9316406 C22.4448243,14.5820313 22.5625,15.2775879 22.5625,16 C22.5625,16.7224121 22.4448242,17.4179688 22.2282715,18.0683594 Z" id="Shape"></path>
                                </g>
                            </g>
                        </g>
                    </g>
                </g>
            </g>
        </g>
    </g>
</svg>