<?xml version="1.0" encoding="UTF-8"?>
<svg width="96px" height="96px" viewBox="0 0 96 96" version="1.1" xmlns="http://www.w3.org/2000/svg" xmlns:xlink="http://www.w3.org/1999/xlink">
    <!-- Generator: Sketch 58 (84663) - https://sketch.com -->
    <title>calculations</title>
    <desc>Created with Sketch.</desc>
    <g id="Page-3" stroke="none" stroke-width="1" fill="none" fill-rule="evenodd">
        <g id="Главная_страница" transform="translate(-674.000000, -2811.000000)" fill="#D83139" fill-rule="nonzero">
            <g id="Group-9" transform="translate(345.000000, 2595.000000)">
                <g id="Group-22" transform="translate(99.000000, 184.000000)">
                    <g id="Group-28">
                        <g id="Group-29" transform="translate(146.000000, 32.000000)">
                            <g id="calculations" transform="translate(84.000000, 0.000000)">
                                <path d="M91.3548387,30.9677419 L89.8064516,30.9677419 L89.8064516,12.3870968 L15.483871,12.3870968 L15.483871,0 L7.74193548,0 C3.47328619,0 0,3.47328619 0,7.74193548 L0,66.5806452 C0,70.8492945 3.47328619,74.3225806 7.74193548,74.3225806 L49.5483871,74.3225806 L49.5483871,91.3548387 C49.5483871,93.9155746 51.6328125,96 54.1935484,96 L91.3548387,96 C93.9155746,96 96,93.9155746 96,91.3548387 L96,35.6129032 C96,33.0521673 93.9155746,30.9677419 91.3548387,30.9677419 Z M3.09677419,7.74193548 C3.09677419,5.18119955 5.18119955,3.09677419 7.74193548,3.09677419 L12.3870968,3.09677419 L12.3870968,58.8387097 L7.74193548,58.8387097 C6,58.8387097 4.39112903,59.4178428 3.09677419,60.390121 L3.09677419,7.74193548 Z M7.74193548,71.2258065 C5.18119955,71.2258065 3.09677419,69.1413811 3.09677419,66.5806452 C3.09677419,64.0199092 5.18119955,61.9354839 7.74193548,61.9354839 L15.483871,61.9354839 L15.483871,15.483871 L86.7096774,15.483871 L86.7096774,30.9677419 L54.6736392,30.9677419 C52.0735887,23.6174396 45.0491431,18.5806452 37.1612903,18.5806452 C26.9153226,18.5806452 18.5806452,26.9153226 18.5806452,37.1612903 C18.5806452,47.4072581 26.9153226,55.7419355 37.1612903,55.7419355 C41.7754537,55.7419355 46.1726311,54.0090726 49.5483871,50.9901714 L49.5483871,71.2258065 L7.74193548,71.2258065 Z M49.5483871,35.6129032 L38.7096774,35.6129032 L38.7096774,21.764365 C44.545615,22.3540827 49.6028226,26.2295866 51.6638106,31.7268145 C50.3921371,32.5561995 49.5483871,33.9858871 49.5483871,35.6129032 Z M35.6129032,52.5665323 C27.7998991,51.7870463 21.6774194,45.1754032 21.6774194,37.1612903 C21.6774194,29.1471774 27.7998991,22.5355343 35.6129032,21.7560484 L35.6129032,52.5665323 Z M38.7096774,38.7096774 L49.5483871,38.7096774 L49.5483871,46.4175908 C46.9407763,49.8999495 43.0017641,52.1174396 38.7096774,52.5506553 L38.7096774,38.7096774 Z M92.9032258,91.3548387 C92.9032258,92.2076613 92.2076613,92.9032258 91.3548387,92.9032258 L54.1935484,92.9032258 C53.3407258,92.9032258 52.6451613,92.2076613 52.6451613,91.3548387 L52.6451613,35.6129032 C52.6451613,34.7600806 53.3407258,34.0645161 54.1935484,34.0645161 L91.3548387,34.0645161 C92.2076613,34.0645161 92.9032258,34.7600806 92.9032258,35.6129032 L92.9032258,91.3548387 Z" id="Shape"></path>
                                <path d="M55.7419355,52.6451613 L89.8064516,52.6451613 L89.8064516,37.1612903 L55.7419355,37.1612903 L55.7419355,52.6451613 Z M58.8387097,40.2580645 L86.7096774,40.2580645 L86.7096774,49.5483871 L58.8387097,49.5483871 L58.8387097,40.2580645 Z" id="Shape"></path>
                                <path d="M80.516129,89.8064516 L89.8064516,89.8064516 L89.8064516,80.516129 L80.516129,80.516129 L80.516129,89.8064516 Z M83.6129032,83.6129032 L86.7096774,83.6129032 L86.7096774,86.7096774 L83.6129032,86.7096774 L83.6129032,83.6129032 Z" id="Shape"></path>
                                <path d="M68.1290323,89.8064516 L77.4193548,89.8064516 L77.4193548,80.516129 L68.1290323,80.516129 L68.1290323,89.8064516 Z M71.2258065,83.6129032 L74.3225806,83.6129032 L74.3225806,86.7096774 L71.2258065,86.7096774 L71.2258065,83.6129032 Z" id="Shape"></path>
                                <path d="M55.7419355,89.8064516 L65.0322581,89.8064516 L65.0322581,80.516129 L55.7419355,80.516129 L55.7419355,89.8064516 Z M58.8387097,83.6129032 L61.9354839,83.6129032 L61.9354839,86.7096774 L58.8387097,86.7096774 L58.8387097,83.6129032 Z" id="Shape"></path>
                                <path d="M80.516129,77.4193548 L89.8064516,77.4193548 L89.8064516,68.1290323 L80.516129,68.1290323 L80.516129,77.4193548 Z M83.6129032,71.2258065 L86.7096774,71.2258065 L86.7096774,74.3225806 L83.6129032,74.3225806 L83.6129032,71.2258065 Z" id="Shape"></path>
                                <path d="M68.1290323,77.4193548 L77.4193548,77.4193548 L77.4193548,68.1290323 L68.1290323,68.1290323 L68.1290323,77.4193548 Z M71.2258065,71.2258065 L74.3225806,71.2258065 L74.3225806,74.3225806 L71.2258065,74.3225806 L71.2258065,71.2258065 Z" id="Shape"></path>
                                <path d="M55.7419355,77.4193548 L65.0322581,77.4193548 L65.0322581,68.1290323 L55.7419355,68.1290323 L55.7419355,77.4193548 Z M58.8387097,71.2258065 L61.9354839,71.2258065 L61.9354839,74.3225806 L58.8387097,74.3225806 L58.8387097,71.2258065 Z" id="Shape"></path>
                                <path d="M80.516129,65.0322581 L89.8064516,65.0322581 L89.8064516,55.7419355 L80.516129,55.7419355 L80.516129,65.0322581 Z M83.6129032,58.8387097 L86.7096774,58.8387097 L86.7096774,61.9354839 L83.6129032,61.9354839 L83.6129032,58.8387097 Z" id="Shape"></path>
                                <path d="M68.1290323,65.0322581 L77.4193548,65.0322581 L77.4193548,55.7419355 L68.1290323,55.7419355 L68.1290323,65.0322581 Z M71.2258065,58.8387097 L74.3225806,58.8387097 L74.3225806,61.9354839 L71.2258065,61.9354839 L71.2258065,58.8387097 Z" id="Shape"></path>
                                <path d="M55.7419355,65.0322581 L65.0322581,65.0322581 L65.0322581,55.7419355 L55.7419355,55.7419355 L55.7419355,65.0322581 Z M58.8387097,58.8387097 L61.9354839,58.8387097 L61.9354839,61.9354839 L58.8387097,61.9354839 L58.8387097,58.8387097 Z" id="Shape"></path>
                                <polygon id="Path" points="61.9354839 18.5806452 83.6129032 18.5806452 83.6129032 21.6774194 61.9354839 21.6774194"></polygon>
                                <polygon id="Path" points="58.8387097 24.7741935 83.6129032 24.7741935 83.6129032 27.8709677 58.8387097 27.8709677"></polygon>
                            </g>
                        </g>
                    </g>
                </g>
            </g>
        </g>
    </g>
</svg>