<?xml version="1.0" encoding="UTF-8"?>
<svg width="380px" height="380px" viewBox="0 0 380 380" version="1.1" xmlns="http://www.w3.org/2000/svg" xmlns:xlink="http://www.w3.org/1999/xlink">
    <!-- Generator: Sketch 60.1 (88133) - https://sketch.com -->
    <title>carwash2</title>
    <desc>Created with Sketch.</desc>
    <g id="Page-1" stroke="none" stroke-width="1" fill="none" fill-rule="evenodd">
        <g id="CarWash2">
            <rect id="Rectangle" x="0" y="0" width="380" height="380"></rect>
            <path d="M363.5,48 L363.5,52 L298.957633,52 C289.311042,52 280.859948,58.4074278 278.241645,67.6625713 L251.215317,172.565851 L241.666132,172.565851 C222.296225,172.565851 206.557582,190.094229 206.244746,209.367457 L206.24,209.952629 L206,324.5 L202.24039,324.590318 L202.24039,209.952629 C202.24039,188.416977 219.541088,168.918935 241.014169,168.571128 L241.666132,168.565851 L248.156,168.565 L274.38108,66.6142985 C277.39381,55.8760014 287.042906,48.3522779 298.169817,48.0120344 L298.563137,48.0030151 L298.957633,48 L363.5,48 Z" id="Path" fill="#D83139" fill-rule="nonzero"></path>
            <path d="M363.74039,60 L363.74039,80 L319.74039,80 C311.334649,80 304.37799,83.5202726 301.974203,91.544096 L301.869916,91.9050348 L278.74039,177 L363.74039,177 L363.74039,324.5 L297.24039,324.5 L297.24039,352.5 C297.24039,364.650264 287.390654,374.5 275.24039,374.5 L255.74039,374.5 C243.590125,374.5 233.74039,364.650264 233.74039,352.5 L233.74039,324.5 L212.24039,324.5 L212.24039,212.5 C212.24039,193.170034 227.910424,177.5 247.24039,177.5 L254.74039,177.5 L281.416805,76.3877816 C283.964956,66.7294659 292.700122,60 302.688923,60 L363.74039,60 Z M264.24039,205 C246.567278,205 232.24039,219.326888 232.24039,237 C232.24039,254.673112 246.567278,269 264.24039,269 C281.913502,269 296.24039,254.673112 296.24039,237 C296.24039,219.326888 281.913502,205 264.24039,205 Z" id="Shape" fill="#D83139"></path>
            <path d="M124.700442,143.888416 L199.24,208.684092 L199.24,212.856092 L123.13984,146.703817 L124.700442,143.888416 Z M126.668769,140.33746 L200.701542,196.124486 C200.398113,197.2326 200.13963,198.353686 199.928279,199.484556 L125.127559,143.117876 L126.668769,140.33746 Z M128.611401,136.832859 L204.757146,186.282441 C204.240058,187.201031 203.755366,188.139029 203.304781,189.09394 L127.080857,139.594033 L128.611401,136.832859 Z M130.542883,133.348374 L210.895413,177.888219 C210.16425,178.670623 209.461211,179.482132 208.788143,180.320052 L129.016217,136.102551 L130.542883,133.348374 Z M132.478243,129.856892 L219.914113,170.627723 C218.849752,171.252095 217.814565,171.929512 216.811495,172.655689 L130.947699,132.618066 L132.478243,129.856892 Z M134.43251,126.3313 L237.189134,165.774681 C234.854104,165.786655 232.568646,166.045039 230.350663,166.523746 L132.890331,129.113465 L134.43251,126.3313 Z M136.42023,122.745359 L248.732,157.082092 L247.967,160.141092 L134.859628,125.56076 L136.42023,122.745359 Z M20.0077595,84.116092 L55.6081578,88.4906586 L100.603331,113.431891 L100.739284,113.197152 C102.23178,110.728608 105.065216,109.397221 107.91814,109.82392 L108.185619,109.869093 L109.564081,110.128654 L135.108843,121.925415 L122.083625,145.423532 L98.5427428,130.011676 L97.5921482,128.98022 C95.5651908,126.780841 95.1261056,123.561954 96.4648503,120.909081 L96.5955719,120.66208 L51.6003983,95.7208482 L16,91.3462815 L20.0077595,84.116092 Z" id="Combined-Shape" fill="#D83139"></path>
            <g id="sparkles" transform="translate(164.000000, 9.000000)" fill="#D83139" fill-rule="nonzero">
                <path d="M22.0003444,17 C22.6463396,17 23.1929641,17.4798199 23.2802793,18.1232738 L23.2802793,18.1232738 L25.16281,32.0029004 C25.2592529,32.7137126 24.7642942,33.3682487 24.0575056,33.465217 C23.3520948,33.5625316 22.6997276,33.0647033 22.6031125,32.3540642 L22.6031125,32.3540642 L22.0005167,27.9104919 L19.3913922,47.1495217 C19.1663014,48.8097574 17.9786761,50.1446299 16.3661855,50.5501652 L16.3661855,50.5501652 L6.61787638,53.0006926 L16.3656688,55.4505274 C17.9786761,55.8560627 19.1664736,57.1909352 19.3917366,58.8515173 L19.3917366,58.8515173 L22.0008611,78.0893349 L24.6099856,58.8508247 C24.8350764,57.1902426 26.0228739,55.8553701 27.6357089,55.4500079 L27.6357089,55.4500079 L37.3831569,53 L27.6424255,50.5515505 C26.0256294,50.1451494 24.8352486,48.8097574 24.6099856,47.1495217 L24.6099856,47.1495217 L23.3564003,37.9054992 C23.2599574,37.1948601 23.7550883,36.5403241 24.4618769,36.4433558 C25.1659099,36.3465607 25.8196549,36.8438695 25.9160978,37.5546818 L25.9160978,37.5546818 L27.1695109,46.798531 C27.2513151,47.4004271 27.682897,47.8844028 28.2689598,48.03176 L28.2689598,48.03176 L43.0219658,51.7401048 C43.5970065,51.8846914 44,52.4043376 44,53.0001732 C44,53.5960087 43.5966621,54.1154817 43.0216214,54.2600684 L43.0216214,54.2600684 L28.2618988,57.9701447 C27.6797971,58.1162898 27.2509707,58.599746 27.1693387,59.2019884 L27.1693387,59.2019884 L23.2802793,87.8768993 C23.1929641,88.5201801 22.6463396,89 22.0003444,89 C21.3543493,89 20.8077248,88.5203532 20.7204096,87.8768993 L20.7204096,87.8768993 L16.8315224,59.2025079 C16.7498904,58.6004387 16.3208918,58.1168093 15.7387901,57.970491 L15.7387901,57.970491 L0.978378632,54.260761 C0.403337926,54.1161744 0,53.5967013 0,53.0008658 C0,52.4050302 0.403337926,51.8855572 0.978378632,51.7409705 L0.978378632,51.7409705 L15.7389623,48.0303747 C16.3208918,47.8842297 16.7497182,47.4006003 16.8313502,46.798531 L16.8313502,46.798531 L20.7204096,18.1232738 C20.8077248,17.4798199 21.3545215,17 22.0003444,17 Z M63.5001745,50 C64.1529903,50 64.7058158,50.4812595 64.7963829,51.1278265 L64.7963829,51.1278265 L66.8979227,66.1596366 C66.9059499,66.216892 66.9583008,66.2668159 67.028102,66.2839227 L67.028102,66.2839227 L75.0007957,68.2279876 C75.5869514,68.3709516 76,68.8965491 76,69.5001746 C76,70.1038 75.5873004,70.629223 75.0011447,70.7721869 L75.0011447,70.7721869 L67.0246119,72.7169501 C66.9560322,72.7337078 66.9062989,72.7822353 66.8980972,72.8407126 L66.8980972,72.8407126 L64.7965574,87.8721735 C64.7059903,88.5187405 64.1531648,89 63.500349,89 C62.8477077,89 62.2947077,88.5187405 62.2041406,87.8721735 L62.2041406,87.8721735 L60.8344664,78.0769627 C60.7343017,77.3607466 61.2333803,76.6991675 61.9493662,76.5989705 C62.6657011,76.499821 63.3267185,76.9981873 63.4268832,77.7142288 L63.4268832,77.7142288 L63.500349,78.2391281 L64.3056804,72.4779787 C64.4634311,71.3501522 65.2872599,70.4455868 66.4046027,70.1731 L66.4046027,70.1731 L69.1641934,69.5003491 L66.4082673,68.8282965 C65.2888304,68.5554606 64.4632566,67.6503715 64.3055059,66.5227195 L64.3055059,66.5227195 L63.5001745,60.7615701 L62.6946686,66.5227195 C62.5369179,67.6505461 61.7129146,68.5551114 60.5957463,68.8274237 L60.5957463,68.8274237 L57.8356321,69.5003491 L60.5953973,70.1731 C61.7127401,70.4452377 62.5369179,71.3499776 62.6946686,72.4779787 C62.7948333,73.1940202 62.2957547,73.8557739 61.5797688,73.9559708 C60.8667495,74.0547713 60.202242,73.5569287 60.1022518,72.8407126 C60.0940501,72.7824098 60.0444913,72.7338824 59.9757371,72.7171247 L59.9757371,72.7171247 L51.9988553,70.7723615 C51.4125251,70.6293975 51,70.1039746 51,69.5003491 C51,68.8967237 51.4126996,68.3713007 51.9988553,68.2283368 L51.9988553,68.2283368 L59.9757371,66.2832244 C60.0444913,66.2662922 60.0940501,66.2179393 60.1022518,66.159462 L60.1022518,66.159462 L62.2039661,51.1278265 C62.2945332,50.4812595 62.8475332,50 63.5001745,50 Z M50.0000856,0 C50.6390206,0 51.1807635,0.475688178 51.2707688,1.11565149 L51.2707688,1.11565149 L53.8467001,19.4623629 C53.8732226,19.6520842 54.0330419,19.814109 54.2440239,19.8653476 L54.2440239,19.8653476 L64.0161017,22.237903 C64.5930939,22.3781168 65,22.9000236 65,23.5003462 C65,24.1006688 64.5930939,24.6225756 64.0161017,24.7627894 L64.0161017,24.7627894 L54.2394038,27.1363834 C54.0279085,27.1877951 53.8737359,27.3454923 53.8473845,27.5381564 L53.8473845,27.5381564 L51.2712821,45.8843485 C51.1812768,46.5243118 50.639705,47 50.0005989,47 C49.3614928,47 48.8197498,46.5243118 48.7299156,45.8843485 L48.7299156,45.8843485 L46.1538132,27.5386757 C46.1267774,27.3456654 45.9724337,27.1877951 45.7609384,27.1363834 L45.7609384,27.1363834 L35.9838983,24.7629625 C35.4069061,24.6227487 35,24.1008419 35,23.5005193 C35,22.9001967 35.4069061,22.3782899 35.9838983,22.2380761 L35.9838983,22.2380761 L45.7611095,19.8639628 C45.9726048,19.8127242 46.1267774,19.6548539 46.1538132,19.4618436 L46.1538132,19.4618436 L46.3918311,17.766815 C46.4915898,17.0569179 47.143016,16.5635731 47.8428672,16.6639731 C48.5444294,16.7647193 49.0326141,17.421993 48.9330265,18.1318901 L48.9330265,18.1318901 L48.6950086,19.8269187 C48.5185914,21.0815722 47.6021115,22.0869568 46.3601752,22.3886761 L46.3601752,22.3886761 L41.782567,23.5001731 L46.3594908,24.6113239 C47.6019404,24.9128701 48.5185914,25.9186009 48.6948375,27.1732544 L48.6948375,27.1732544 L50.0002567,36.4702925 L51.3056758,27.1730813 C51.4815797,25.9184278 52.3980596,24.9128701 53.6406803,24.6111508 L53.6406803,24.6111508 L58.217433,23.5 L53.6451293,22.3898878 C52.3999418,22.0876493 51.4815797,21.0817453 51.3053336,19.8272649 L51.3053336,19.8272649 L50.0000856,10.5300537 L49.7119317,12.5818484 C49.612173,13.2917455 48.9604045,13.7852634 48.2608956,13.6846903 C47.5593333,13.583771 47.0711487,12.9266704 47.1707363,12.2167734 L47.1707363,12.2167734 L48.7294023,1.11565149 C48.8194076,0.475688178 49.3611506,0 50.0000856,0 Z" id="Combined-Shape"></path>
            </g>
            <text id="дистанция" font-family="Qanelas-Medium, Qanelas" font-size="36" font-weight="400" fill="#D83139">
                <tspan x="14.2403899" y="351">дистанция</tspan>
            </text>
        </g>
    </g>
</svg>