<?xml version="1.0" encoding="UTF-8"?>
<svg width="380px" height="380px" viewBox="0 0 380 380" version="1.1" xmlns="http://www.w3.org/2000/svg" xmlns:xlink="http://www.w3.org/1999/xlink">
    <!-- Generator: Sketch 60.1 (88133) - https://sketch.com -->
    <title>carwash</title>
    <desc>Created with Sketch.</desc>
    <g id="Page-1" stroke="none" stroke-width="1" fill="none" fill-rule="evenodd">
        <g id="CarWash">
            <rect id="Rectangle" x="0" y="0" width="380" height="380"></rect>
            <path d="M363.74039,60 L363.74039,80 L319.74039,80 C311.334649,80 304.37799,83.5202726 301.974203,91.544096 L301.869916,91.9050348 L278.74039,177 L363.74039,177 L363.74039,324.5 L297.24039,324.5 L297.24039,352.5 C297.24039,364.650264 287.390654,374.5 275.24039,374.5 L255.74039,374.5 C243.590125,374.5 233.74039,364.650264 233.74039,352.5 L233.74039,324.5 L212.24039,324.5 L212.24039,212.5 C212.24039,193.170034 227.910424,177.5 247.24039,177.5 L254.74039,177.5 L281.416805,76.3877816 C283.964956,66.7294659 292.700122,60 302.688923,60 L363.74039,60 Z M264.24039,205 C246.567278,205 232.24039,219.326888 232.24039,237 C232.24039,254.673112 246.567278,269 264.24039,269 C281.913502,269 296.24039,254.673112 296.24039,237 C296.24039,219.326888 281.913502,205 264.24039,205 Z" id="Shape" fill="#D83139"></path>
            <path d="M124.700442,143.888416 L199.24,208.684092 L199.24,212.856092 L123.13984,146.703817 L124.700442,143.888416 Z M126.668769,140.33746 L200.757879,196.167261 C200.43936,197.258636 200.168476,198.370278 199.947624,199.499793 L125.127559,143.117876 L126.668769,140.33746 Z M128.611401,136.832859 L205.119597,186.518171 C204.558187,187.404467 204.032426,188.315511 203.544324,189.249296 L127.080857,139.594033 L128.611401,136.832859 Z M130.542883,133.348374 L211.94385,178.468124 C211.12573,179.199384 210.339432,179.96541 209.587285,180.763876 L129.016217,136.102551 L130.542883,133.348374 Z M132.478243,129.856892 L222.434335,171.80222 C221.187043,172.332651 219.973858,172.92755 218.798979,173.582726 L130.947699,132.618066 L132.478243,129.856892 Z M134.43251,126.3313 L245,168.774092 L237.359202,168.774245 C236.990114,168.774245 236.622251,168.779482 236.255683,168.789887 L132.890331,129.113465 L134.43251,126.3313 Z M136.42023,122.745359 L248.705,157.074092 L247.879,160.114092 L134.859628,125.56076 L136.42023,122.745359 Z M20.0077595,84.116092 L55.6081578,88.4906586 L100.603331,113.431891 L100.739284,113.197152 C102.23178,110.728608 105.065216,109.397221 107.91814,109.82392 L108.185619,109.869093 L109.564081,110.128654 L135.108843,121.925415 L122.083625,145.423532 L98.5427428,130.011676 L97.5921482,128.98022 C95.5651908,126.780841 95.1261056,123.561954 96.4648503,120.909081 L96.5955719,120.66208 L51.6003983,95.7208482 L16,91.3462815 L20.0077595,84.116092 Z" id="Combined-Shape" fill="#D83139"></path>
            <g id="Bubbles" transform="translate(151.240390, 6.000000)" fill="#D83139" fill-rule="nonzero">
                <g id="Bubble" transform="translate(55.000000, 72.000000)">
                    <path d="M24,0 C10.745166,0 0,10.745166 0,24 C0,37.254834 10.745166,48 24,48 C37.254834,48 48,37.254834 48,24 C48,10.745166 37.254834,0 24,0 Z M25,2 C37.1502645,2 47,11.8497355 47,24 C47,36.1502645 37.1502645,46 25,46 C12.8497355,46 3,36.1502645 3,24 C3,11.8497355 12.8497355,2 25,2 Z"></path>
                    <path d="M16.5,7 C12.3578644,7 9,10.3578644 9,14.5 C9,18.6421356 12.3578644,22 16.5,22 C20.6421356,22 24,18.6421356 24,14.5 C24,10.3578644 20.6421356,7 16.5,7 Z M16,7 C19.8659932,7 23,10.1340068 23,14 C23,17.8659932 19.8659932,21 16,21 C12.1340068,21 9,17.8659932 9,14 C9,10.1340068 12.1340068,7 16,7 Z" id="Bubble-blick"></path>
                </g>
                <g id="Bubble-Copy" transform="translate(0.000000, 58.000000)">
                    <path d="M20.5,0 C9.17816263,0 0,9.17816263 0,20.5 C0,31.8218374 9.17816263,41 20.5,41 C31.8218374,41 41,31.8218374 41,20.5 C41,9.17816263 31.8218374,0 20.5,0 Z M21.3541667,1.70833333 C31.7325176,1.70833333 40.1458333,10.1216491 40.1458333,20.5 C40.1458333,30.8783509 31.7325176,39.2916667 21.3541667,39.2916667 C10.9758157,39.2916667 2.5625,30.8783509 2.5625,20.5 C2.5625,10.1216491 10.9758157,1.70833333 21.3541667,1.70833333 Z" id="Bubble"></path>
                    <path d="M14.5,6 C10.9101491,6 8,8.91014913 8,12.5 C8,16.0898509 10.9101491,19 14.5,19 C18.0898509,19 21,16.0898509 21,12.5 C21,8.91014913 18.0898509,6 14.5,6 Z M14.0666667,6 C17.4171941,6 20.1333333,8.71613918 20.1333333,12.0666667 C20.1333333,15.4171941 17.4171941,18.1333333 14.0666667,18.1333333 C10.7161392,18.1333333 8,15.4171941 8,12.0666667 C8,8.71613918 10.7161392,6 14.0666667,6 Z" id="Bubble-blick"></path>
                </g>
                <g id="Bubble-Copy-2" transform="translate(43.000000, 32.000000)">
                    <path d="M14.5,0 C6.49187113,0 0,6.49187113 0,14.5 C0,22.5081289 6.49187113,29 14.5,29 C22.5081289,29 29,22.5081289 29,14.5 C29,6.49187113 22.5081289,0 14.5,0 Z M15.1041667,1.20833333 C22.4449515,1.20833333 28.3958333,7.1592152 28.3958333,14.5 C28.3958333,21.8407848 22.4449515,27.7916667 15.1041667,27.7916667 C7.76338187,27.7916667 1.8125,21.8407848 1.8125,14.5 C1.8125,7.1592152 7.76338187,1.20833333 15.1041667,1.20833333 Z" id="Bubble"></path>
                    <path d="M10.2037037,4 C7.53432741,4 5.37037037,6.01471863 5.37037037,8.5 C5.37037037,10.9852814 7.53432741,13 10.2037037,13 C12.87308,13 15.037037,10.9852814 15.037037,8.5 C15.037037,6.01471863 12.87308,4 10.2037037,4 Z M9.88148148,4 C12.3728994,4 14.3925926,5.88040405 14.3925926,8.2 C14.3925926,10.5195959 12.3728994,12.4 9.88148148,12.4 C7.39006361,12.4 5.37037037,10.5195959 5.37037037,8.2 C5.37037037,5.88040405 7.39006361,4 9.88148148,4 Z" id="Bubble-blick"></path>
                </g>
                <g id="Bubble-Copy-3" transform="translate(88.000000, 27.000000)">
                    <path d="M17,0 C7.61115925,0 0,7.61115925 0,17 C0,26.3888407 7.61115925,34 17,34 C26.3888407,34 34,26.3888407 34,17 C34,7.61115925 26.3888407,0 17,0 Z M17.7083333,1.41666667 C26.3147707,1.41666667 33.2916667,8.39356265 33.2916667,17 C33.2916667,25.6064374 26.3147707,32.5833333 17.7083333,32.5833333 C9.10189598,32.5833333 2.125,25.6064374 2.125,17 C2.125,8.39356265 9.10189598,1.41666667 17.7083333,1.41666667 Z" id="Bubble"></path>
                    <path d="M11.5,4 C8.46243388,4 6,6.46243388 6,9.5 C6,12.5375661 8.46243388,15 11.5,15 C14.5375661,15 17,12.5375661 17,9.5 C17,6.46243388 14.5375661,4 11.5,4 Z M11.1333333,4 C13.968395,4 16.2666667,6.29827162 16.2666667,9.13333333 C16.2666667,11.968395 13.968395,14.2666667 11.1333333,14.2666667 C8.29827162,14.2666667 6,11.968395 6,9.13333333 C6,6.29827162 8.29827162,4 11.1333333,4 Z" id="Bubble-blick"></path>
                </g>
                <g id="Bubble-Copy-4" transform="translate(8.000000, 7.000000)">
                    <path d="M14.5,0 C6.49187113,0 0,6.49187113 0,14.5 C0,22.5081289 6.49187113,29 14.5,29 C22.5081289,29 29,22.5081289 29,14.5 C29,6.49187113 22.5081289,0 14.5,0 Z M15.1041667,1.20833333 C22.4449515,1.20833333 28.3958333,7.1592152 28.3958333,14.5 C28.3958333,21.8407848 22.4449515,27.7916667 15.1041667,27.7916667 C7.76338187,27.7916667 1.8125,21.8407848 1.8125,14.5 C1.8125,7.1592152 7.76338187,1.20833333 15.1041667,1.20833333 Z" id="Bubble"></path>
                    <path d="M9.5,4 C7.01471863,4 5,6.01471863 5,8.5 C5,10.9852814 7.01471863,13 9.5,13 C11.9852814,13 14,10.9852814 14,8.5 C14,6.01471863 11.9852814,4 9.5,4 Z M9.2,4 C11.5195959,4 13.4,5.88040405 13.4,8.2 C13.4,10.5195959 11.5195959,12.4 9.2,12.4 C6.88040405,12.4 5,10.5195959 5,8.2 C5,5.88040405 6.88040405,4 9.2,4 Z" id="Bubble-blick"></path>
                </g>
                <g id="Bubble-Copy-5" transform="translate(67.000000, 0.000000)">
                    <path d="M11,0 C4.92486775,0 0,4.92486775 0,11 C0,17.0751322 4.92486775,22 11,22 C17.0751322,22 22,17.0751322 22,11 C22,4.92486775 17.0751322,0 11,0 Z M11.4583333,0.916666667 C17.0272046,0.916666667 21.5416667,5.43112877 21.5416667,11 C21.5416667,16.5688712 17.0272046,21.0833333 11.4583333,21.0833333 C5.88946211,21.0833333 1.375,16.5688712 1.375,11 C1.375,5.43112877 5.88946211,0.916666667 11.4583333,0.916666667 Z" id="Bubble"></path>
                    <path d="M7.5,3 C5.56700338,3 4,4.56700338 4,6.5 C4,8.43299662 5.56700338,10 7.5,10 C9.43299662,10 11,8.43299662 11,6.5 C11,4.56700338 9.43299662,3 7.5,3 Z M7.26666667,3 C9.07079685,3 10.5333333,4.46253648 10.5333333,6.26666667 C10.5333333,8.07079685 9.07079685,9.53333333 7.26666667,9.53333333 C5.46253648,9.53333333 4,8.07079685 4,6.26666667 C4,4.46253648 5.46253648,3 7.26666667,3 Z" id="Bubble-blick"></path>
                </g>
            </g>
            <text id="дистанция" font-family="Qanelas-Medium, Qanelas" font-size="36" font-weight="400" fill="#D83139">
                <tspan x="14.2403899" y="351">дистанция</tspan>
            </text>
        </g>
    </g>
</svg>