<?xml version="1.0" encoding="UTF-8"?>
<svg width="380px" height="380px" viewBox="0 0 380 380" version="1.1" xmlns="http://www.w3.org/2000/svg" xmlns:xlink="http://www.w3.org/1999/xlink">
    <!-- Generator: Sketch 60.1 (88133) - https://sketch.com -->
    <title>carwash3</title>
    <desc>Created with Sketch.</desc>
    <g id="Page-1" stroke="none" stroke-width="1" fill="none" fill-rule="evenodd">
        <g id="CarWash3">
            <rect id="Rectangle" x="0" y="0" width="380" height="380"></rect>
            <path d="M362.74039,60 L362.74039,80 L318.74039,80 C310.334649,80 303.37799,83.5202726 300.974203,91.544096 L300.869916,91.9050348 L277.74039,177 L362.74039,177 L362.74039,324.5 L296.24039,324.5 L296.24039,352.5 C296.24039,364.650264 286.390654,374.5 274.24039,374.5 L254.74039,374.5 C242.590125,374.5 232.74039,364.650264 232.74039,352.5 L232.74039,324.5 L211.24039,324.5 L211.24039,212.5 C211.24039,193.170034 226.910424,177.5 246.24039,177.5 L253.74039,177.5 L280.416805,76.3877816 C282.964956,66.7294659 291.700122,60 301.688923,60 L362.74039,60 Z M263.24039,205 C245.567278,205 231.24039,219.326888 231.24039,237 C231.24039,254.673112 245.567278,269 263.24039,269 C280.913502,269 295.24039,254.673112 295.24039,237 C295.24039,219.326888 280.913502,205 263.24039,205 Z" id="Shape" fill="#D83139"></path>
            <path d="M123.700442,143.888416 L198.24,208.684092 L198.24,212.856092 L122.13984,146.703817 L123.700442,143.888416 Z M125.668769,140.33746 L199.701542,196.124486 C199.398113,197.2326 199.13963,198.353686 198.928279,199.484556 L124.127559,143.117876 L125.668769,140.33746 Z M127.611401,136.832859 L203.757146,186.282441 C203.240058,187.201031 202.755366,188.139029 202.304781,189.09394 L126.080857,139.594033 L127.611401,136.832859 Z M129.542883,133.348374 L209.895413,177.888219 C209.16425,178.670623 208.461211,179.482132 207.788143,180.320052 L128.016217,136.102551 L129.542883,133.348374 Z M131.478243,129.856892 L218.914113,170.627723 C217.849752,171.252095 216.814565,171.929512 215.811495,172.655689 L129.947699,132.618066 L131.478243,129.856892 Z M133.43251,126.3313 L236.189134,165.774681 C233.854104,165.786655 231.568646,166.045039 229.350663,166.523746 L131.890331,129.113465 L133.43251,126.3313 Z M135.42023,122.745359 L247.732,157.082092 L246.967,160.141092 L133.859628,125.56076 L135.42023,122.745359 Z M19.0077595,84.116092 L54.6081578,88.4906586 L99.6033315,113.431891 L99.739284,113.197152 C101.23178,110.728608 104.065216,109.397221 106.91814,109.82392 L107.185619,109.869093 L108.564081,110.128654 L134.108843,121.925415 L121.083625,145.423532 L97.5427428,130.011676 L96.5921482,128.98022 C94.5651908,126.780841 94.1261056,123.561954 95.4648503,120.909081 L95.5955719,120.66208 L50.6003983,95.7208482 L15,91.3462815 L19.0077595,84.116092 Z" id="Combined-Shape" fill="#D83139"></path>
            <text id="дистанция" font-family="Qanelas-Medium, Qanelas" font-size="36" font-weight="400" fill="#D83139">
                <tspan x="13.2403899" y="351">дистанция</tspan>
            </text>
        </g>
    </g>
</svg>