<?xml version="1.0" encoding="UTF-8"?>
<svg width="380px" height="380px" viewBox="0 0 380 380" version="1.1" xmlns="http://www.w3.org/2000/svg" xmlns:xlink="http://www.w3.org/1999/xlink">
    <!-- Generator: Sketch 60.1 (88133) - https://sketch.com -->
    <title>CarWash4</title>
    <desc>Created with Sketch.</desc>
    <g id="Page-1" stroke="none" stroke-width="1" fill="none" fill-rule="evenodd">
        <g id="CarWash4">
            <rect id="Rectangle" x="0" y="0" width="380" height="380"></rect>
            <path d="M363.5,48 L363.5,52 L298.957633,52 C289.311042,52 280.859948,58.4074278 278.241645,67.6625713 L251.215317,172.565851 L241.666132,172.565851 C222.296225,172.565851 206.557582,190.094229 206.244746,209.367457 L206.24,209.952629 L206,324.5 L202.24039,324.590318 L202.24039,209.952629 C202.24039,188.416977 219.541088,168.918935 241.014169,168.571128 L241.666132,168.565851 L248.156,168.565 L274.38108,66.6142985 C277.39381,55.8760014 287.042906,48.3522779 298.169817,48.0120344 L298.563137,48.0030151 L298.957633,48 L363.5,48 Z" id="Path" fill="#D83139" fill-rule="nonzero"></path>
            <path d="M363.74039,60 L363.74039,80 L319.74039,80 C311.334649,80 304.37799,83.5202726 301.974203,91.544096 L301.869916,91.9050348 L278.74039,177 L363.74039,177 L363.74039,324.5 L297.24039,324.5 L297.24039,352.5 C297.24039,364.650264 287.390654,374.5 275.24039,374.5 L255.74039,374.5 C243.590125,374.5 233.74039,364.650264 233.74039,352.5 L233.74039,324.5 L212.24039,324.5 L212.24039,212.5 C212.24039,193.170034 227.910424,177.5 247.24039,177.5 L254.74039,177.5 L281.416805,76.3877816 C283.964956,66.7294659 292.700122,60 302.688923,60 L363.74039,60 Z M264.24039,205 C246.567278,205 232.24039,219.326888 232.24039,237 C232.24039,254.673112 246.567278,269 264.24039,269 C281.913502,269 296.24039,254.673112 296.24039,237 C296.24039,219.326888 281.913502,205 264.24039,205 Z" id="Shape" fill="#D83139"></path>
            <path d="M124.700442,143.888416 L199.24,208.684092 L199.24,212.856092 L123.13984,146.703817 L124.700442,143.888416 Z M126.668769,140.33746 L200.701542,196.124486 C200.398113,197.2326 200.13963,198.353686 199.928279,199.484556 L125.127559,143.117876 L126.668769,140.33746 Z M128.611401,136.832859 L204.757146,186.282441 C204.240058,187.201031 203.755366,188.139029 203.304781,189.09394 L127.080857,139.594033 L128.611401,136.832859 Z M130.542883,133.348374 L210.895413,177.888219 C210.16425,178.670623 209.461211,179.482132 208.788143,180.320052 L129.016217,136.102551 L130.542883,133.348374 Z M132.478243,129.856892 L219.914113,170.627723 C218.849752,171.252095 217.814565,171.929512 216.811495,172.655689 L130.947699,132.618066 L132.478243,129.856892 Z M134.43251,126.3313 L237.189134,165.774681 C234.854104,165.786655 232.568646,166.045039 230.350663,166.523746 L132.890331,129.113465 L134.43251,126.3313 Z M136.42023,122.745359 L248.732,157.082092 L247.967,160.141092 L134.859628,125.56076 L136.42023,122.745359 Z M20.0077595,84.116092 L55.6081578,88.4906586 L100.603331,113.431891 L100.739284,113.197152 C102.23178,110.728608 105.065216,109.397221 107.91814,109.82392 L108.185619,109.869093 L109.564081,110.128654 L135.108843,121.925415 L122.083625,145.423532 L98.5427428,130.011676 L97.5921482,128.98022 C95.5651908,126.780841 95.1261056,123.561954 96.4648503,120.909081 L96.5955719,120.66208 L51.6003983,95.7208482 L16,91.3462815 L20.0077595,84.116092 Z" id="Combined-Shape" fill="#D83139"></path>
            <g id="water" transform="translate(170.000000, 26.000000)" fill="#D83139" fill-rule="nonzero">
                <g id="drop_l" transform="translate(37.000000, 37.000000)">
                    <path d="M17,48 C27.962565,48 34,41.5037217 34,29.7074805 C34,18.6631932 18.5029948,1.10364715 17.8433594,0.362858135 C17.6225586,0.131187233 17.3181967,0 17,0 C16.6818034,0 16.376888,0.131187233 16.1566406,0.362858135 C15.4970052,1.10364715 0,18.6631932 0,29.7074805 C0,41.5037217 6.03743497,48 17,48 Z M17,4.29168216 C20.0830078,7.87801136 31,21.1512337 31,29.3480362 C31,36.1652407 28.570613,44.2916822 17,44.2916822 C5.42938702,44.2916822 3,36.1652407 3,29.3480362 C3,21.1512337 13.9164663,7.87801136 17,4.29168216 Z" id="Shape"></path>
                    <path d="M17.5259913,42.8327954 C18.3119852,42.8327954 18.9603761,42.2465298 19,41.5 C19.0389034,40.7534701 18.456072,40.1089888 17.6736803,40.0343357 C14.5916623,39.8870845 12.7210539,39.6619081 10.7881287,37.3750613 C6.86392289,32.5109741 8.16358642,26.6696712 8.17511337,26.5915938 C8.28245804,25.8402696 7.7421322,25.1437368 6.9554181,25.0190869 C6.16870363,24.8951217 5.4201725,25.3875575 5.26599946,26.1313479 C5.20043989,26.5018732 3.73723791,33.2287386 8.43663108,39.0694785 C10.8544085,41.9891636 13.4757094,42.6150004 17.3783023,42.8259466 C17.4272918,42.8307407 17.4762814,42.8327954 17.5259913,42.8327954 Z" id="Path"></path>
                </g>
                <g id="drop_m" transform="translate(0.000000, 27.000000)">
                    <path d="M14.5,41 C23.7151149,41 29,34.9778843 29,24.4744269 C29,14.6119317 16.2220323,1.05465985 15.6792264,0.481491871 C15.367703,0.173337042 14.9428983,0 14.5,0 C14.0571017,0 13.632297,0.173337042 13.3207736,0.481491871 C12.7779677,1.05465985 0,14.6119317 0,24.4744269 C0,34.9778843 5.28409826,41 14.5,41 L14.5,41 Z M14.5,3.93821871 C17.6073677,7.4789177 25.7777778,17.4569711 25.7777778,24.4744269 C25.7777778,33.3462044 21.9836425,37.8444946 14.5,37.8444946 C7.01635747,37.8444946 3.22222222,33.3462044 3.22222222,24.4744269 C3.22222222,17.4569711 11.3918457,7.4789177 14.5,3.93821871 Z" id="Shape"></path>
                    <path d="M13.5385364,35 C16.3774668,34.9603335 19.0841792,33.8202916 21.0636925,31.8303603 C22.7772674,29.6751523 23.3970393,26.8757324 22.7479693,24.2210215 C22.5902091,23.4188785 21.8074187,22.8863203 20.9833101,23.0207454 C20.1592013,23.155905 19.5957725,23.9088321 19.7144681,24.717586 C20.1854947,26.4937596 19.8233978,28.3837903 18.7265894,29.8727497 C17.3345445,31.1964325 15.4797367,31.9537669 13.5385364,31.9912296 C12.6888857,31.9912296 12,32.6648239 12,33.4956148 C12,34.3264057 12.6888857,35 13.5385364,35 L13.5385364,35 Z" id="Path"></path>
                </g>
                <g id="drop_s" transform="translate(25.000000, 0.000000)">
                    <path d="M9.82142857,0.500647415 C9.42089854,0.949033646 0,11.5701825 0,18.5906081 C0,26.4767524 4.00990504,31 11,31 C17.9893275,31 22,26.4767524 22,18.5906081 C22,11.5701825 12.5791015,0.949033646 12.1785714,0.500647415 C11.8716518,0.181020841 11.4458007,0 11,0 C10.5541993,0 10.127581,0.181020841 9.82142857,0.500647415 Z M11,27.897652 C5.78773721,27.897652 3.14285714,24.765765 3.14285714,18.5906081 C3.14285714,14.3741112 8.05970982,7.51046936 11,3.93474051 C13.9418247,7.50289517 18.8571429,14.3680519 18.8571429,18.5906081 C18.8571429,24.765765 16.2122628,27.897652 11,27.897652 Z" id="Shape"></path>
                    <path d="M10.1536733,22.3424843 C9.676819,22.1663426 9.30891743,21.8079149 9.14623467,21.3614162 C8.9842983,20.9156004 9.04399836,20.4260905 9.31040983,20.0239688 C9.68726642,19.3330566 9.3813037,18.4926288 8.62535173,18.1478555 C7.87014596,17.8023993 6.95225743,18.0829971 6.57465464,18.7739092 C5.9463114,19.8416826 5.82765768,21.0999348 6.2463043,22.2503172 C6.66569714,23.4006995 7.58507807,24.3421698 8.7872881,24.8521614 C9.54324007,25.1976174 10.4611286,24.9170196 10.8387314,24.2254248 C11.215588,23.5345126 10.9096253,22.6947676 10.1536733,22.3493114 L10.1536733,22.3424843 Z" id="Path"></path>
                </g>
            </g>
            <text id="дистанция" font-family="Qanelas-Medium, Qanelas" font-size="36" font-weight="400" fill="#D83139">
                <tspan x="14.2403899" y="351">дистанция</tspan>
            </text>
        </g>
    </g>
</svg>