<?xml version="1.0" encoding="UTF-8"?>
<svg width="32px" height="32px" viewBox="0 0 32 32" version="1.1" xmlns="http://www.w3.org/2000/svg" xmlns:xlink="http://www.w3.org/1999/xlink">
    <g id="placeholder" transform="translate(4.000000, 0.000000)" fill="#D83139" fill-rule="nonzero">
        <path d="M23.98825,30.872875 L19.7695625,21.9490625 C19.685375,21.771 19.5395,21.6345625 19.3645625,21.560125 L17.2658125,20.6258125 L20.902375,14.5309375 C20.9110625,14.5163125 20.91925,14.5015 20.9270625,14.486375 C21.6500625,13.0751875 22.0166875,11.55025 22.0166875,9.9541875 C22.0166875,7.26925 20.9638125,4.752125 19.052,2.8665625 C17.1405,0.9814375 14.608125,-0.03675 11.9215625,0.001 C9.3123125,0.0371875 6.8555625,1.08525 5.00375,2.95225 C3.152125,4.819125 2.123875,7.2843125 2.108375,9.893875 C2.098875,11.4885625 2.4756875,13.0765625 3.1978125,14.4863125 C3.2055625,14.501375 3.21375,14.51625 3.2224375,14.530875 L6.8589375,20.6256875 L4.7480625,21.565125 C4.575375,21.6419375 4.436,21.778125 4.35525,21.949 L0.1366875,30.872875 C-0.0045,31.1713125 0.0550625,31.5261875 0.2859375,31.76225 C0.51675,31.9983125 0.87,32.0659375 1.1716875,31.9316875 L6.4565625,29.5788125 L11.7414375,31.9316875 C11.945875,32.022625 12.1793125,32.022625 12.38375,31.9316875 L17.668625,29.5788125 L22.9535,31.9316875 C23.05675,31.977625 23.1660625,32 23.2744375,32 C23.482625,32 23.6874375,31.917625 23.83925,31.7623125 C24.0699375,31.5261875 24.1294375,31.1714375 23.98825,30.872875 Z M4.5920625,13.744125 C3.9839375,12.548375 3.679625,11.2563125 3.68753141,9.9033125 C3.7144375,5.3765 7.4180625,1.6426875 11.9435625,1.58 C14.2039375,1.549625 16.335,2.4049375 17.943125,3.991 C19.55175,5.5774375 20.4375625,7.6951875 20.4375625,9.95425 C20.4375625,11.2891875 20.13325,12.5640625 19.533,13.744125 L12.740625,25.128375 C12.53325,25.475875 12.197375,25.513375 12.0625625,25.513375 C11.9276875,25.513375 11.5918125,25.475875 11.3845,25.128375 L4.5920625,13.744125 Z M17.989625,27.9931875 C17.7851875,27.90225 17.55175,27.90225 17.3473125,27.9931875 L12.0624375,30.3460625 L6.7775625,27.9931875 C6.573125,27.90225 6.3396875,27.90225 6.13525,27.9931875 L2.474125,29.6231875 L5.65775,22.888875 L7.673875,21.991625 L10.028125,25.9374375 C10.459625,26.6606875 11.220125,27.0925 12.0623125,27.0925 C12.9045,27.0925 13.665,26.6606875 14.0965,25.9375 L16.45075,21.991625 L18.4670625,22.88925 L21.6505,29.62325 L17.989625,27.9931875 Z" id="Shape"></path>
        <path d="M12.06275,6.3504375 C10.075625,6.3504375 8.4590625,7.967 8.4590625,9.9540625 C8.4590625,11.941125 10.075625,13.5576875 12.06275,13.5576875 C14.0498125,13.5576875 15.666375,11.941125 15.666375,9.9540625 C15.666375,7.967 14.0498125,6.3504375 12.06275,6.3504375 Z M12.06275,11.9785625 C10.9464375,11.978625 10.0381875,11.0705 10.0381875,9.9540625 C10.0381875,8.83775 10.946375,7.9295625 12.06275,7.9295625 C13.1790625,7.9295625 14.08725,8.83775 14.08725,9.9540625 C14.08725,11.070375 13.1790625,11.9785625 12.06275,11.9785625 Z" id="Shape"></path>
    </g>
</svg>