<?xml version="1.0" encoding="UTF-8"?>
<svg width="50px" height="50px" viewBox="0 0 50 50" version="1.1" xmlns="http://www.w3.org/2000/svg" xmlns:xlink="http://www.w3.org/1999/xlink">
    <g transform="translate(13.000000, 13.000000)">
        <g id="menu-(1)" transform="translate(0.000000, 3.600000)" fill="#2C3E50" fill-rule="nonzero">
            <path d="M23,9.34684129 L1,9.34684129 C0.447998062,9.34684129 0,8.91366906 0,8.37993482 C0,7.84620057 0.447998063,7.41302834 1,7.41302834 L23,7.41302834 C23.5520019,7.41302834 24,7.84620057 24,8.37993482 C24,8.91366906 23.5520019,9.34684129 23,9.34684129 Z" id="Path"></path>
            <path d="M23,1.93381295 L1,1.93381295 C0.447998062,1.93381295 0,1.50064072 0,0.966906475 C0,0.433172227 0.447998063,0 1,0 L23,0 C23.5520019,0 24,0.433172227 24,0.966906475 C24,1.50064072 23.5520019,1.93381295 23,1.93381295 Z" id="Path"></path>
            <path d="M23,16.7596335 L1,16.7596335 C0.447998062,16.7596335 0,16.3264613 0,15.7927271 C0,15.2589928 0.447998063,14.8258206 1,14.8258206 L23,14.8258206 C23.5520019,14.8258206 24,15.2589928 24,15.7927271 C24,16.3264613 23.5520019,16.7596335 23,16.7596335 Z" id="Path"></path>
        </g>
        <rect id="Rectangle" stroke="#979797" stroke-width="1.2" fill="#D8D8D8" opacity="0" x="0.6" y="0.6" width="22.8" height="22.8"></rect>
    </g>
</svg>
