<?xml version="1.0" encoding="UTF-8"?>
<svg width="50px" height="50px" viewBox="0 0 50 50" version="1.1" xmlns="http://www.w3.org/2000/svg" xmlns:xlink="http://www.w3.org/1999/xlink">
    <g id="menu" transform="translate(13.000000, 13.000000)">
        <g id="menu-(1)" transform="translate(2.000000, 3.000000)" fill="#2C3E50" fill-rule="nonzero">
            <path d="M21,10.3338129 L-1,10.3338129 C-1.55200194,10.3338129 -2,9.90064072 -2,9.36690647 C-2,8.83317223 -1.55200194,8.4 -1,8.4 L21,8.4 C21.5520019,8.4 22,8.83317223 22,9.36690647 C22,9.90064072 21.5520019,10.3338129 21,10.3338129 Z" id="Path" transform="translate(10.000000, 9.366906) rotate(-45.000000) translate(-10.000000, -9.366906) "></path>
            <path d="M21,10.3338129 L-1,10.3338129 C-1.55200194,10.3338129 -2,9.90064072 -2,9.36690647 C-2,8.83317223 -1.55200194,8.4 -1,8.4 L21,8.4 C21.5520019,8.4 22,8.83317223 22,9.36690647 C22,9.90064072 21.5520019,10.3338129 21,10.3338129 Z" id="Path" transform="translate(10.000000, 9.366906) rotate(45.000000) translate(-10.000000, -9.366906) "></path>
        </g>
    </g>
</svg>
