<?xml version="1.0" encoding="UTF-8"?>
<svg width="20px" height="20px" viewBox="0 0 20 20" version="1.1" xmlns="http://www.w3.org/2000/svg" xmlns:xlink="http://www.w3.org/1999/xlink">
    <path d="M16.5677876,7.11292035 C16.1423009,7.30159292 15.6846018,7.42920354 15.2046018,7.48619469 C15.6946903,7.19256637 16.0707965,6.7279646 16.2483186,6.17345133 C15.7897345,6.44548673 15.2815929,6.64283186 14.7412389,6.74920354 C14.3083186,6.28814159 13.6915044,6 13.0084956,6 C11.6980531,6 10.6352212,7.06283186 10.6352212,8.37327434 C10.6352212,8.55929204 10.6562832,8.74035398 10.6969912,8.91415929 C8.72460177,8.81522124 6.97575221,7.87044248 5.80513274,6.43415929 C5.60088496,6.78460177 5.48371681,7.19256637 5.48371681,7.62743363 C5.48371681,8.45061947 5.90300885,9.17734513 6.53946903,9.60283186 C6.15061947,9.59061947 5.78442478,9.48389381 5.46460177,9.30566372 C5.46442478,9.31575221 5.46442478,9.32584071 5.46442478,9.33575221 C5.46442478,10.4856637 6.28283186,11.4447788 7.36831858,11.6626549 C7.16938053,11.7171681 6.95929204,11.7460177 6.74318584,11.7460177 C6.5899115,11.7460177 6.44141593,11.7313274 6.29663717,11.7037168 C6.59858407,12.6463717 7.47486726,13.3325664 8.51362832,13.3518584 C7.70123894,13.9884956 6.6780531,14.3677876 5.56584071,14.3677876 C5.37469027,14.3677876 5.18530973,14.3566372 5,14.3345133 C6.04973451,15.0081416 7.29752212,15.400885 8.63769912,15.400885 C13.0030088,15.400885 15.3902655,11.7846018 15.3902655,8.64814159 C15.3902655,8.54530973 15.3879646,8.44283186 15.3833628,8.34123894 C15.8474336,8.00672566 16.2497345,7.58884956 16.5677876,7.11292035 L16.5677876,7.11292035 Z" id="Shape" fill="#FFFFFF"></path>
</svg>