<?xml version="1.0" encoding="UTF-8"?>
<svg width="20px" height="20px" viewBox="0 0 20 20" version="1.1" xmlns="http://www.w3.org/2000/svg" xmlns:xlink="http://www.w3.org/1999/xlink">
    <path d="M9.55380531,14.2835398 L10.3330973,14.2835398 C10.3330973,14.2835398 10.5684956,14.2576991 10.6886726,14.1281416 C10.799292,14.0092035 10.7957522,13.7858407 10.7957522,13.7858407 C10.7957522,13.7858407 10.780531,12.740177 11.2658407,12.5861947 C11.7442478,12.4345133 12.3585841,13.5968142 13.0097345,14.0437168 C13.5021239,14.3819469 13.8762832,14.3077876 13.8762832,14.3077876 L15.6173451,14.2835398 C15.6173451,14.2835398 16.5281416,14.2274336 16.0962832,13.5113274 C16.060885,13.4527434 15.8447788,12.9815929 14.8017699,12.0134513 C13.7100885,11.000177 13.8562832,11.1640708 15.1713274,9.41132743 C15.9722124,8.34389381 16.2923894,7.69221239 16.1923894,7.41309735 C16.0969912,7.14725664 15.5079646,7.21752212 15.5079646,7.21752212 L13.5476106,7.22973451 C13.5476106,7.22973451 13.4023009,7.2099115 13.2945133,7.27433628 C13.1892035,7.33752212 13.1214159,7.48477876 13.1214159,7.48477876 C13.1214159,7.48477876 12.8111504,8.31079646 12.3973451,9.01327434 C11.5244248,10.4955752 11.1753982,10.5738053 11.0327434,10.4817699 C10.700885,10.2672566 10.7837168,9.62 10.7837168,9.16017699 C10.7837168,7.72371681 11.0015929,7.12477876 10.359469,6.96973451 C10.1463717,6.91823009 9.98955752,6.88424779 9.44460177,6.87876106 C8.74513274,6.87150442 8.15309735,6.88088496 7.81787611,7.04513274 C7.59486726,7.15433628 7.42283186,7.39769912 7.52761062,7.41168142 C7.65716814,7.42902655 7.95061947,7.49079646 8.10619469,7.70265487 C8.30707965,7.9759292 8.3,8.58973451 8.3,8.58973451 C8.3,8.58973451 8.41539823,10.280708 8.03044248,10.4907965 C7.76619469,10.6348673 7.40371681,10.340708 6.62548673,8.9959292 C6.22672566,8.30707965 5.92566372,7.54566372 5.92566372,7.54566372 C5.92566372,7.54566372 5.86761062,7.40336283 5.7640708,7.32725664 C5.63840708,7.23504425 5.46283186,7.20566372 5.46283186,7.20566372 L3.6,7.21787611 C3.6,7.21787611 3.32035398,7.22566372 3.21769912,7.34725664 C3.12637168,7.45539823 3.21044248,7.67911504 3.21044248,7.67911504 C3.21044248,7.67911504 4.66884956,11.0911504 6.32017699,12.8106195 C7.83433628,14.3870796 9.55380531,14.2835398 9.55380531,14.2835398 L9.55380531,14.2835398 Z" id="Shape" fill="#ECF0F1"></path>
</svg>