<?xml version="1.0" encoding="UTF-8"?>
<svg width="20px" height="20px" viewBox="0 0 20 20" version="1.1" xmlns="http://www.w3.org/2000/svg" xmlns:xlink="http://www.w3.org/1999/xlink">
    <g id="Instagram" transform="translate(4.000000, 4.000000)" fill="#fff" fill-rule="nonzero">
        <path d="M5.99911111,2.90911111 C7.7031111,2.90911111 9.0893333,4.29533333 9.0893333,5.99911111 C9.0893333,7.70288891 7.7028889,9.08933331 5.99911111,9.08933331 C4.29533333,9.08933331 2.90911111,7.70311111 2.90911111,5.99911111 C2.90911111,4.29533333 4.29533333,2.90911111 5.99911111,2.90911111 Z M5.99911111,4.21488889 C5.01555556,4.21488889 4.21466667,5.01533333 4.21466667,5.99888889 C4.21466667,6.98288891 5.01555556,7.78355551 5.99911111,7.78355551 C6.9831111,7.78355551 7.7833333,6.98288891 7.7833333,5.99888889 C7.7833333,5.01555555 6.9828889,4.21488889 5.99911111,4.21488889 Z" id="Combined-Shape"></path>
        <path d="M9.1886667,3.548 C8.7853333,3.548 8.4573333,3.22 8.4573333,2.81688889 C8.4573333,2.41377778 8.7853333,2.08577778 9.1886667,2.08577778 C9.5917778,2.08577778 9.9197778,2.41377778 9.9197778,2.81688889 C9.9197778,3.22 9.5917778,3.548 9.1886667,3.548 Z" id="Shape-path"></path>
        <path d="M8.9715556,-1.77635684e-15 C10.6406667,-1.77635684e-15 11.9982222,1.35777778 11.9982222,3.02666667 L11.9982222,8.97155551 C11.9982222,10.6406667 10.6406667,11.9982222 8.9715556,11.9982222 L3.02666667,11.9982222 C1.35777778,11.9982222 1.77635684e-15,10.6406667 1.77635684e-15,8.97155551 L1.77635684e-15,3.02666667 C1.77635684e-15,1.35777778 1.35777778,-1.77635684e-15 3.02666667,-1.77635684e-15 L8.9715556,-1.77635684e-15 Z M8.9715556,1.30577778 L3.02666667,1.30577778 C2.07777778,1.30577778 1.30577778,2.07777778 1.30577778,3.02666667 L1.30577778,8.97155551 C1.30577778,9.92044441 2.07777778,10.6926667 3.02666667,10.6926667 L8.9715556,10.6926667 C9.9204444,10.6926667 10.6926667,9.92066671 10.6926667,8.97155551 L10.6926667,3.02666667 C10.6926667,2.07777778 9.9206667,1.30577778 8.9715556,1.30577778 Z" id="Combined-Shape"></path>
    </g>
</svg>