<?xml version="1.0" encoding="iso-8859-1"?>
<!-- Generator: Adobe Illustrator 18.0.0, SVG Export Plug-In . SVG Version: 6.00 Build 0)  -->
<!DOCTYPE svg PUBLIC "-//W3C//DTD SVG 1.1//EN" "http://www.w3.org/Graphics/SVG/1.1/DTD/svg11.dtd">
<svg version="1.1" id="Capa_1" xmlns="http://www.w3.org/2000/svg" xmlns:xlink="http://www.w3.org/1999/xlink" x="0px" y="0px"
	 viewBox="0 0 260.691 260.691" style="enable-background:new 0 0 260.691 260.691;" xml:space="preserve">
<g>
	<path d="M64.215,62.042l-12.962-7.549c-4.112,7.06-6.286,15.133-6.286,23.344h15C59.968,72.275,61.437,66.814,64.215,62.042z"/>
	<path d="M91.407,46.398c1.203,0,2.415,0.068,3.601,0.203l1.694-14.904c-1.747-0.198-3.528-0.299-5.295-0.299
		c-12.773,0-25.115,5.342-33.86,14.655l10.935,10.268C74.491,49.922,82.632,46.398,91.407,46.398z"/>
	<path d="M121.472,68.61h17.748c2.898-9.459,10.198-17.087,19.527-20.405l-5.026-14.133c-9.679,3.442-17.868,10.035-23.375,18.493
		c-5.507-8.458-13.696-15.051-23.375-18.493l-5.026,14.133C111.274,51.523,118.574,59.151,121.472,68.61z"/>
	<path d="M200.725,77.837h15c0-8.211-2.174-16.283-6.286-23.344l-12.962,7.549C199.256,66.814,200.725,72.275,200.725,77.837z"/>
	<polygon points="122.846,120.221 122.845,120.221 122.845,156.501 122.846,156.501 137.845,156.501 137.846,156.501 
		137.846,120.22 122.846,120.22 	"/>
	<path d="M169.285,46.398c8.774,0,16.916,3.524,22.925,9.923l10.935-10.268c-8.746-9.313-21.087-14.655-33.86-14.655
		c-1.766,0-3.548,0.101-5.295,0.299l1.693,14.904C166.871,46.467,168.083,46.398,169.285,46.398z"/>
	<polygon points="122.846,165.407 122.845,165.407 122.845,185.907 137.845,185.907 137.846,165.407 137.845,165.407 	"/>
	<path d="M137.847,85.503V74.572h-15.001v10.931c-45.593,1.845-88.192,20.463-120.648,52.919C0.79,139.828,0,141.736,0,143.726
		c0,1.989,0.79,3.896,2.197,5.303l78.069,78.066c2.929,2.93,7.678,2.93,10.606,0c10.543-10.543,24.562-16.35,39.473-16.35
		c14.912,0,28.93,5.807,39.474,16.352c1.406,1.406,3.314,2.196,5.303,2.196c1.989,0,3.897-0.79,5.303-2.196l78.069-78.068
		c2.929-2.929,2.929-7.678,0-10.606C226.039,105.966,183.439,87.348,137.847,85.503z M174.847,211.462
		c-12.562-10.184-28.107-15.717-44.502-15.717s-31.939,5.533-44.501,15.716l-67.621-67.619
		c28.864-26.425,65.527-41.609,104.622-43.334v10.863h15l0,0h0.001v-10.863c39.095,1.725,75.758,16.909,104.622,43.334
		L174.847,211.462z"/>
</g>
<g>
</g>
<g>
</g>
<g>
</g>
<g>
</g>
<g>
</g>
<g>
</g>
<g>
</g>
<g>
</g>
<g>
</g>
<g>
</g>
<g>
</g>
<g>
</g>
<g>
</g>
<g>
</g>
<g>
</g>
</svg>
