<svg height="512pt" viewBox="0 0 512.0005 512" width="512pt" xmlns="http://www.w3.org/2000/svg"><path d="m486.320312 214.476562-142.417968 144.398438-190.777344-190.777344 144.398438-142.417968c5.898437-5.816407 5.964843-15.3125.148437-21.210938-5.820313-5.898438-15.316406-5.964844-21.214844-.148438-357.480469 352.578126 31.019531-30.683593-197.65625 195.523438-29.308593 29.3125-29.3125 76.753906 0 106.070312l31.820313 31.820313-97.460938 97.464844c-17.546875 17.542969-17.546875 46.09375 0 63.640625s46.09375 17.546875 63.640625 0l97.464844-97.460938 31.820313 31.820313c29.308593 29.308593 76.753906 29.316406 106.070312 0 43.613281-43.617188 19.746094-19.246094 195.523438-197.65625 5.816406-5.898438 5.75-15.394531-.144532-21.214844-5.902344-5.816406-15.398437-5.75-21.214844.148437zm-259.019531 197.507813-42.429687-42.429687c-5.855469-5.855469-15.355469-5.855469-21.210938 0l-108.074218 108.070312c-5.847657 5.851562-15.363282 5.851562-21.210938 0-5.863281-5.863281-5.863281-15.347656 0-21.214844l108.066406-108.070312c5.859375-5.855469 5.859375-15.355469 0-21.210938l-42.425781-42.429687c-14.105469-14.105469-16.648437-34.84375-8.804687-51.230469l187.320312 187.320312c-16.371094 7.839844-37.117188 5.308594-51.230469-8.804687zm74.25-10.605469-190.929687-190.929687 21.214844-21.210938 190.929687 190.925781zm0 0"/><path d="m497 60.003906c-24.8125 0-45.003906-20.1875-45.003906-45.003906 0-8.285156-6.714844-15-15-15-8.28125 0-15 6.714844-15 15 0 24.816406-20.1875 45.003906-45 45.003906-8.285156 0-15 6.714844-15 15s6.714844 15 15 15c24.8125 0 45 20.1875 45 45 0 8.285156 6.71875 15.003906 15 15.003906 8.285156 0 15-6.71875 15-15.003906 0-24.8125 20.191406-45 45.003906-45 8.285156 0 15-6.714844 15-15s-6.714844-15-15-15zm-60.003906 30.046875c-4.277344-5.695312-9.347656-10.765625-15.046875-15.046875 5.699219-4.277344 10.769531-9.351562 15.046875-15.046875 4.28125 5.699219 9.351562 10.769531 15.050781 15.046875-5.699219 4.28125-10.769531 9.351563-15.050781 15.046875zm0 0"/><path d="m276.382812 94.398438-60 60.003906c-5.859374 5.855468-5.859374 15.355468 0 21.210937 5.855469 5.859375 15.355469 5.859375 21.210938 0l60.003906-60c5.859375-5.859375 5.859375-15.355469 0-21.214843-5.855468-5.859376-15.355468-5.859376-21.214844 0zm0 0"/><path d="m336.386719 295.621094c5.855469 5.855468 15.355469 5.859375 21.214843 0l60-60.003906c5.859376-5.859376 5.859376-15.355469 0-21.214844-5.855468-5.859375-15.355468-5.859375-21.210937 0l-60.003906 60.003906c-5.859375 5.859375-5.859375 15.355469 0 21.214844zm0 0"/><path d="m336.386719 154.402344-60.003907 60c-5.855468 5.859375-5.855468 15.355468 0 21.214844 5.859376 5.859374 15.355469 5.859374 21.214844 0l60.003906-60.003907c5.855469-5.855469 5.855469-15.355469 0-21.210937-5.859374-5.859375-15.355468-5.859375-21.214843 0zm0 0"/></svg>