<svg height="512pt" viewBox="0 0 512.0005 512" width="512pt" xmlns="http://www.w3.org/2000/svg"><path d="m506.140625 5.859375c-7.808594-7.8125-20.472656-7.8125-28.28125 0l-280.859375 280.855469-123.523438-123.523438c-7.8125-7.8125-20.472656-7.8125-28.285156 0-7.808594 7.8125-7.808594 20.472656 0 28.285156l5.523438 5.523438-44.855469 44.859375c-7.8125 7.808594-7.8125 20.472656 0 28.28125l236 236c7.808594 7.8125 20.472656 7.8125 28.28125 0l44.859375-44.855469 5.523438 5.523438c7.8125 7.808594 20.472656 7.8125 28.285156 0s7.8125-20.472656 0-28.285156l-123.523438-123.523438 280.855469-280.859375c7.8125-7.808594 7.8125-20.472656 0-28.28125zm-250.140625 457.855469-207.714844-207.714844 30.714844-30.714844 207.714844 207.714844zm0 0"/></svg>